<?xml version="1.0" encoding="UTF-8"?>
<svg width="20px" height="21px" viewBox="0 0 20 21" version="1.1" xmlns="http://www.w3.org/2000/svg" xmlns:xlink="http://www.w3.org/1999/xlink">
    <!-- Generator: Sketch 42 (36781) - http://www.bohemiancoding.com/sketch -->
    <title>Linkedin</title>
    <desc>Created with Sketch.</desc>
    <defs></defs>
    <g id="Event" stroke="none" stroke-width="1" fill="none" fill-rule="evenodd">
        <g id="Homepage" transform="translate(-1320.000000, -4792.000000)" fill="#2D2D2D">
            <g id="Footer" transform="translate(0.000000, -49.000000)">
                <g id="Event-Footer" transform="translate(100.000000, 4840.000000)">
                    <g id="Social" transform="translate(1142.000000, 1.000000)">
                        <g id="Linkedin" transform="translate(78.000000, 0.000000)">
                            <path d="M20,20.0668896 L15.6482952,20.0668896 L15.6482952,12.5383481 C15.6482952,11.1364232 14.6073674,9.95179229 13.3753998,9.95179229 C12.3057508,9.95179229 11.5994691,9.95179229 11.075959,11.1078672 C10.9932766,11.2908045 10.86142,11.9837355 10.86142,12.3179309 L10.86142,20.0668896 L6.52755717,20.0668896 L6.52755717,5.32303094 L10.9528058,5.32303094 L11.0750887,6.56834354 C11.7187058,5.96465026 12.8288257,5.32303094 14.6430514,5.32303094 C17.222742,5.32303094 20,7.32998761 20,11.736547 L20,20.0668896 Z M0.417328488,5.32303094 L4.32864075,5.32303094 L4.32864075,20.0668896 L0.417328488,20.0668896 L0.417328488,5.32303094 Z M2.29944081,4.56941826 C0.967383973,4.56941826 0,3.60877403 0,2.28537841 C0,0.961090414 0.986966644,0 2.34643922,0 C3.68328293,0 4.63848213,0.935657659 4.66937923,2.27511607 C4.66937923,2.91271969 4.43917405,3.4878569 4.02141039,3.90504332 C3.58580474,4.33963109 2.99049153,4.56941826 2.29944081,4.56941826 Z" id="Fill-9"></path>
                        </g>
                    </g>
                </g>
            </g>
        </g>
    </g>
</svg>