<?xml version="1.0" encoding="UTF-8"?>
<svg width="11px" height="13px" viewBox="0 0 11 13" version="1.1" xmlns="http://www.w3.org/2000/svg" xmlns:xlink="http://www.w3.org/1999/xlink">
    <!-- Generator: Sketch 42 (36781) - http://www.bohemiancoding.com/sketch -->
    <title>Share</title>
    <desc>Created with Sketch.</desc>
    <defs>
        <polygon id="path-1" points="10.6785714 4.34183698e-15 0 0 0 13 10.6785714 13 10.6785714 0"></polygon>
    </defs>
    <g id="Event" stroke="none" stroke-width="1" fill="none" fill-rule="evenodd">
        <g id="Homepage" transform="translate(-282.000000, -4199.000000)">
            <g id="Block-3" transform="translate(0.000000, 3162.000000)">
                <g id="Tweets" transform="translate(20.000000, 650.000000)">
                    <g id="Tweet-1" transform="translate(120.000000, 0.000000)">
                        <g id="Share" transform="translate(142.000000, 387.000000)">
                            <mask id="mask-2" fill="white">
                                <use xlink:href="#path-1"></use>
                            </mask>
                            <g id="Clip-2"></g>
                            <path d="M8.74404762,3.81909626 C9.81211111,3.81909626 10.6785714,2.96382239 10.6785714,1.90954813 C10.6785714,0.855273878 9.81128571,0 8.74404762,0 C7.67598413,0 6.80952381,0.855273878 6.80952381,1.90954813 C6.80952381,2.09245738 6.84006349,2.26131236 6.88690476,2.42894522 L3.23390476,5.08662885 C2.89363492,4.76582477 2.42934921,4.58291552 1.93452381,4.58291552 C0.866460317,4.58291552 0,5.4381894 0,6.49246365 C0,7.5467379 0.866460317,8.40201178 1.93452381,8.40201178 C2.44565079,8.40201178 2.90993651,8.20301141 3.25,7.89748371 L6.88690476,10.5708511 C6.84006349,10.7388913 6.80952381,10.9067279 6.80952381,11.0904519 C6.80952381,12.1447261 7.67598413,13 8.74404762,13 C9.81211111,13 10.6785714,12.1447261 10.6785714,11.0904519 C10.6785714,10.0361776 9.81211111,9.18090374 8.74404762,9.18090374 C8.24922222,9.18090374 7.80020635,9.36401667 7.45911111,9.66954437 L3.79166667,6.9658279 C3.83850794,6.81306405 3.85377778,6.6603002 3.85377778,6.49246365 C3.85377778,6.3246271 3.82303175,6.17186325 3.79166667,6.0190994 L7.44384127,3.33065931 C7.78411111,3.62009589 8.24839683,3.81909626 8.74404762,3.81909626" id="Fill-1" fill="#4A4A4A" mask="url(#mask-2)"></path>
                        </g>
                    </g>
                </g>
            </g>
        </g>
    </g>
</svg>