<?xml version="1.0" encoding="UTF-8"?>
<svg width="22px" height="18px" viewBox="0 0 22 18" version="1.1" xmlns="http://www.w3.org/2000/svg" xmlns:xlink="http://www.w3.org/1999/xlink">
    <!-- Generator: Sketch 42 (36781) - http://www.bohemiancoding.com/sketch -->
    <title>Twitter</title>
    <desc>Created with Sketch.</desc>
    <defs></defs>
    <g id="Event" stroke="none" stroke-width="1" fill="none" fill-rule="evenodd">
        <g id="Homepage" transform="translate(-1242.000000, -4794.000000)" fill="#2D2D2D">
            <g id="Footer" transform="translate(0.000000, -49.000000)">
                <g id="Event-Footer" transform="translate(100.000000, 4840.000000)">
                    <g id="Social" transform="translate(1142.000000, 1.000000)">
                        <g id="Twitter" transform="translate(0.000000, 2.006689)">
                            <path d="M7.0783811,17.9791334 C5.23842878,17.9791334 2.58438816,17.6264747 0.389731693,15.945993 C0.241971847,15.8328837 0.190839693,15.6329226 0.265323539,15.4624506 C0.340210001,15.2919787 0.522192155,15.1950278 0.704979541,15.2273448 C0.709810925,15.2281527 1.20019647,15.3146006 1.91242308,15.3146006 C3.07678678,15.3146006 4.62605078,15.0960572 5.84114402,14.143111 C4.83661863,13.9031576 3.26360032,13.1893569 2.61740262,11.0669409 C2.57593324,10.9295939 2.60975293,10.7809359 2.70638062,10.6750978 C2.79294293,10.5809747 2.9177537,10.5337112 3.04296709,10.5470419 C2.11212031,9.89343152 1.12208908,8.71143892 1.15550616,6.64800141 C1.15832446,6.49611172 1.24488677,6.35876467 1.38056816,6.29170699 C1.51584693,6.22505327 1.67769831,6.23999986 1.79848293,6.33008337 C1.86008308,6.37573107 1.96959447,6.44723233 2.1064837,6.52034944 C1.34594323,5.43126809 0.514542463,3.52941534 1.75822139,1.36458338 C1.8238477,1.25026216 1.94100877,1.1755292 2.07226139,1.16421827 C2.2059297,1.15250337 2.33194831,1.20663427 2.41609493,1.30762475 C2.45112247,1.35004076 5.96394171,5.51004066 10.2860179,5.55649629 C10.2558217,5.34078062 10.240925,5.12304514 10.240925,4.9049057 C10.240925,2.36883273 12.2701065,0.305395216 14.7647114,0.305395216 C15.9294777,0.305395216 17.0245916,0.748541448 17.8676682,1.55808115 C18.3967048,1.54394248 19.3327856,1.40659542 20.2676585,0.724707694 C20.3864301,0.638259842 20.5426448,0.622909289 20.6759105,0.686331311 C20.8087736,0.74894541 20.8969464,0.879425112 20.9062065,1.02646725 C20.9150641,1.16866185 20.897349,1.78753152 20.0727927,2.71422018 C20.389651,2.6301961 20.6835602,2.52112638 20.8643345,2.38337536 C21.002029,2.27915318 21.190453,2.27430564 21.3329788,2.3712565 C21.4759073,2.46820737 21.541131,2.64554665 21.4956354,2.81278689 C21.4525556,2.96992808 21.1723353,3.60657207 19.3815021,5.27776256 C19.4032433,6.71505909 19.1346988,15.4838606 9.59351941,17.7525108 C9.54399772,17.7634178 8.53383572,17.9791334 7.0783811,17.9791334 Z" id="Fill-1"></path>
                        </g>
                    </g>
                </g>
            </g>
        </g>
    </g>
</svg>