<?xml version="1.0" encoding="utf-8"?>
<!-- Generator: Adobe Illustrator 20.0.0, SVG Export Plug-In . SVG Version: 6.00 Build 0)  -->
<svg version="1.1" id="Layer_1" xmlns="http://www.w3.org/2000/svg" xmlns:xlink="http://www.w3.org/1999/xlink" x="0px" y="0px"
	 viewBox="0 0 36.6 30" style="enable-background:new 0 0 36.6 30;" xml:space="preserve">
<style type="text/css">
	.st0{fill:#0080FF;}
</style>
<path class="st0" d="M12.2,28.3c12.3,0,19.1-10.2,19.1-19.1c0-0.3,0-0.6,0-0.9c1.3-0.9,2.4-2.1,3.3-3.5c-1.2,0.5-2.5,0.9-3.9,1.1
	c1.4-0.8,2.4-2.2,2.9-3.7C32.4,3,31,3.5,29.5,3.8C26.9,1.1,22.7,1,20,3.5c-1.7,1.6-2.5,4.1-1.9,6.4c-5.4-0.3-10.4-2.8-13.8-7
	c-1.8,3.1-0.9,7,2.1,9c-1.1,0-2.1-0.3-3-0.8c0,0,0,0.1,0,0.1c0,3.2,2.3,5.9,5.4,6.6c-1,0.3-2,0.3-3,0.1c0.9,2.7,3.4,4.6,6.3,4.7
	c-2.4,1.9-5.3,2.9-8.3,2.9c-0.5,0-1.1,0-1.6-0.1C5,27.2,8.6,28.3,12.2,28.3"/>
</svg>
