<svg xmlns="http://www.w3.org/2000/svg" viewBox="0 0 109.83 25.12"><defs><style>.a{fill:#fff;}</style></defs><title>BenAndJerrys</title><path class="a" d="M109.9,11.65a1.35,1.35,0,0,1-.15.91,4.32,4.32,0,0,1-.61,1.06c.07.78-.36,1.05-.45,1.67-1,.07-1.36-.56-2.27-.61-.11-.85-.07-1.85-1.06-1.82a.71.71,0,0,1-.45.15,1.26,1.26,0,0,0,.15,1.21c0,.08.14,0,.15.15s.44.31.45.61c0,.13.3.38.45.61a4.79,4.79,0,0,1,1.06,4.24c0,.13-.1.26-.15.45A5.07,5.07,0,0,1,106,22c-.12.11-.32,0-.45.15s-.09.27-.15.3-.26,0-.3,0,0,.14,0,.15-.27,0-.3,0,0,.15,0,.15a4.16,4.16,0,0,1-1.06.15,4.26,4.26,0,0,1-1.21-.15c-.05,0,0-.14-.15-.15-.35,0-.47-.37-.76-.61-.05,0-.26,0-.3,0s-.08-.23-.15-.3c-.27-.28-.51-.75-.61-.76-.32,0-.28.61-.91.45-.38-.52-1.5-.32-1.82-.91a3,3,0,0,1,.61-2.12,1.18,1.18,0,0,1,.15-.15c.17-.42.16-1,.3-1.36,0-.06.14,0,.15-.15a.56.56,0,0,1,0-.15,1.83,1.83,0,0,0,.3-.76c.71-.1,1,.24,1.51.3.16.39.9.21,1.06.61.48.46-.24,1.28.15,1.67a1,1,0,0,0,1.67.15c-.15-.12.19-.75,0-.91,0,0-.15,0-.15,0s0-.27,0-.3-.14,0-.15,0,0-.27,0-.3-.14,0-.15,0a6.45,6.45,0,0,0-.3-.61c-.06-.08-.25-.08-.3-.15s0-.26,0-.3-.14,0-.15,0a8,8,0,0,1-.61-1.21c0-.07-.14,0-.15-.15,0-.32-.28-.74-.3-1.21a1.75,1.75,0,0,1,0-.45.35.35,0,0,1,.15-.15c0-.23-.07-.53,0-.76,0,0,.14,0,.15-.15a1.49,1.49,0,0,1,.15-.3,2.59,2.59,0,0,1,.61-.91,2.38,2.38,0,0,1,1.06-.61c.07,0,0-.14.15-.15a.56.56,0,0,0,.15,0,5,5,0,0,1,1.67-.15s0,.15.15.15a1,1,0,0,1,.61.15c.07,0,.11.13.15.15a6.89,6.89,0,0,1,1.06.76,1.63,1.63,0,0,1,1.36.15,4,4,0,0,1,.45.15C109.35,11.26,109.74,11.47,109.9,11.65Z" transform="translate(-0.09 -0.44)"/><path class="a" d="M103.24,7.71a1.13,1.13,0,0,1,0,.3c0,.1-.15.14-.15.15,0,.18.07.43,0,.61s-.14,0-.15.15a6.17,6.17,0,0,1-1.06,1.36c-.05,0-.26,0-.3,0-.17.21-.13.22-.45.3a1.11,1.11,0,0,1-1.21-.15c0-.67,1-.43,1.06-1.06-.05-.4-.4-.51-.76-.61,0-.18,0-.27-.15-.3-.13-.67-.25-.87.15-1.51a1,1,0,0,1,.76-.61A2.32,2.32,0,0,1,102,6.2s0,.15.15.15c.33,0,.76.5.91.91A2,2,0,0,1,103.24,7.71Z" transform="translate(-0.09 -0.44)"/><path class="a" d="M99.3,7.56a13.18,13.18,0,0,1-1.06,3.64H97.18a9.94,9.94,0,0,0-1.36.91s-.11.28-.15.3-.25,0-.3,0c-.33.29-.66.82-1.06,1.21-.1.1-.39.19-.45.3a6.28,6.28,0,0,0-.15.76s-.14,0-.15.15,0,.3,0,.45c-.11.52.56.25.61.61-.15.12.19.75,0,.91s-.16.49-.3.91a4.36,4.36,0,0,1-.76,1.36,29.07,29.07,0,0,1-4.54-1.36,6.29,6.29,0,0,1,.76-3c.32-.33.43.08.91,0,.12-.4.15-.77.3-1.21s.43-.7.45-1.06a6,6,0,0,0-.15-.91,22.84,22.84,0,0,0-.61-2.42c0-.46-.76-.15-.76-.61a16.8,16.8,0,0,1,.76-3.33,5.79,5.79,0,0,1,2.57.61,5.12,5.12,0,0,1,1.82.61c0,1.24-.62,1.81-.76,2.88a1,1,0,0,1-.76.15,5.39,5.39,0,0,0,.3,1.82c.71-.1.74-.88,1.36-1.06.13-.49-.5-.21-.45-.61a2.73,2.73,0,0,1,.61-1.36,4.24,4.24,0,0,1,.45-1.67C96.78,6.74,98,7.24,99.3,7.56Z" transform="translate(-0.09 -0.44)"/><path class="a" d="M88.39,6.5a7.56,7.56,0,0,1,.3,1.82,9.45,9.45,0,0,1-.3,1.21c-.12.46-.29.53-.45,1.06-.38.33-.94.48-1.21.91.14.82.43,1.49.61,2.27.12.38.8.21,1.06.45,0,.62,0,1.24-.3,1.51a3.53,3.53,0,0,1-.3,1.67A5.24,5.24,0,0,1,86,17.1a4.4,4.4,0,0,1-1.67-.45,7.46,7.46,0,0,1-.45-2.57c-.05-.42-.06-1-.15-1.36s-.1-1-.61-.91c-.49-.14-.21.49-.45.61-.2.76.52.59.61,1.06s-.3.91-.3,1.51c-.26.36,0,1.09-.45,1.36a2.39,2.39,0,0,1-1.21-.3c-.05,0-.27,0-.3,0s-.21-.12-.45-.15c0,0-.28,0-.3,0s-.21-.12-.45-.15c0,0-.28,0-.3,0s0-.15,0-.15c-.47-.1-1,0-1.36-.3s.06-1,.15-1.51c0-.15,0-.31,0-.45s.13-.15.15-.3-.17-.59.15-.76c-.14-.59.8-.11.91-.45.32-1.6.68-3.16.91-4.85-.12-.29-.66-.15-.91-.45-.05-.07,0-.19-.15-.15a28.84,28.84,0,0,0,.76-3.64,4.87,4.87,0,0,1,1.36.15c.87.16,1.72.35,2.73.61.13,0,.26.1.45.15s.26.1.45.15a9.86,9.86,0,0,1,1.06.45,6.63,6.63,0,0,1,.76.45c.13.09.19.22.3.3s.38.07.45.15-.05.26,0,.3.44.18.45.45S88.38,6.22,88.39,6.5ZM84.76,9.08c.5-.18.51-.33.76-.61-.12-.79-.7-1.11-1.51-1.21a15.28,15.28,0,0,0-.45,1.67A1.1,1.1,0,0,0,84.76,9.08Z" transform="translate(-0.09 -0.44)"/><path class="a" d="M77.64,12a18.25,18.25,0,0,1-.3,3.18,15.14,15.14,0,0,1-3.64-.45c-.1-.13,0-.51-.15-.61s-.08-.21-.15-.45c-.18-.58-.35-1.94-.61-2.73-.11-.32,0-1-.61-.91s-.45.56-.45,1.06c.38.08.54.37.76.61-.17.44-.14,1.08-.3,1.51,0,.6,0,1.12-.3,1.36-.53.13-1-.21-1.51-.3-1-.16-2.2,0-3-.45a21.91,21.91,0,0,1,.3-3c-.1-.39.26-.2.45-.3s.25-.24.45-.3C68.64,8.46,69,7,69,5.29c-.18-.28-.79-.12-1.06-.3,0-1.39.32-2.51.45-3.79a17.64,17.64,0,0,1,2.88.15s.28,0,.3,0,.21.12.45.15c0,0,.28,0,.3,0s.21.12.45.15c0,0,.28,0,.3,0a1.81,1.81,0,0,0,.76.3,6.82,6.82,0,0,1,1.06.3c.07,0,0,.14.15.15s.33.29.61.3a5.29,5.29,0,0,1,.91.76c0,.05,0,.26,0,.3s.14,0,.15,0a6.61,6.61,0,0,1,.3.76,5.52,5.52,0,0,1,.3.61,7.67,7.67,0,0,1,0,2s-.15,0-.15.15a1.68,1.68,0,0,1-.3.91c-.05.08-.14,0-.15.15,0,.35-.7.61-1.06.91a10.64,10.64,0,0,1,.76,2.27C76.72,11.76,77.28,11.76,77.64,12Zm-5.3-4.85c1,.45,2-.2,1.82-1.06-.12-.52-.8-.7-1.51-.76C72.47,5.82,72.47,6.54,72.34,7.11Z" transform="translate(-0.09 -0.44)"/><path class="a" d="M66.88,1a25,25,0,0,1-.15,4.24c-1.06-.07-1.82.34-2.73,0V4.23a1,1,0,0,1-.76-.15c-.65.11,0,1.48-.45,1.82.37.29,1.27,0,1.67.3.09.9-.27,1.35-.15,2.27-.32.24-1,.1-1.36.3.18.91-.5,1.77.45,1.82.64.1.34-.44.45-.91,0-.2.27-.24.3-.45a21.5,21.5,0,0,1,2.57.3,6.76,6.76,0,0,1-.15,2.27c-.05.66.14,1.33-.15,1.82-.61.4-1.26,0-2,0s-1.38,0-2.12,0c-.23,0-.52-.13-.76-.15s-.72,0-1.06,0c-.61-.06-1.73-.13-2.57-.3a20.83,20.83,0,0,1,.3-3.18c-.15-.46.34-.27.61-.3s.24-.27.45-.3c-.05-1.72.26-3.07.3-4.7-.12-.38-.8-.21-1.06-.45-.36-1.06.29-1.9.15-3.18,0-.25.14-.26.15-.45C61.58.7,64.31.8,66.88,1Z" transform="translate(-0.09 -0.44)"/><path class="a" d="M57.8,3.62c0,.55-.81.2-1.06.45,0,2.23.45,4,.15,5.76,0,.11.07.53,0,.61s-.15,0-.15,0a5.58,5.58,0,0,1-.3,1.21c-.05.1-.23.18-.3.3a2.75,2.75,0,0,1-1.06.91c-.28.14-.56.17-.91.3a8.59,8.59,0,0,1-2.73.15s0-.15-.15-.15a2.06,2.06,0,0,1-.61-.15,1.26,1.26,0,0,1-.61-.3A2.84,2.84,0,0,1,48.86,11a5.52,5.52,0,0,1-.15-2.73,1.21,1.21,0,0,1,.15-.45,2.81,2.81,0,0,1,.3-.61,3.11,3.11,0,0,1,2.42-.76s0,.15.15.15c.47,0,.63.18.91.61.05.08.14,0,.15.15,0,.48.4,1-.15,1.67,0,.43-.72.19-.61.76.43,0,.77,0,.91-.3.31,0,.11-.45.3-.61s0-.45.15-.61,0-.42,0-1.06c0-1.06.37-2.28-.15-3-1.11-.11-2,.4-2.73-.15a8.41,8.41,0,0,1,0-3.48c.12,0,.15-.15.3-.15h6.82C58,1.22,57.71,2.6,57.8,3.62Z" transform="translate(-0.09 -0.44)"/><path class="a" d="M47.8,4.08a7.51,7.51,0,0,1,0,2s-.14,0-.15.15a1.49,1.49,0,0,1-.15.3c-.26.57-.88.94-1.36,1.51a3.68,3.68,0,0,1,.3,2A5.86,5.86,0,0,1,46,11.35a3.26,3.26,0,0,1-.15.45c-.08.13-.37.18-.45.3s0,.33-.15.45-.2.08-.3.15-.27.33-.45.45-.26,0-.3,0a3,3,0,0,1-1.67.76s0,.14-.15.15a3.5,3.5,0,0,0-.45,0,9.3,9.3,0,0,1-3,0,4.64,4.64,0,0,1-1.06-.3c-.07,0,0-.14-.15-.15s-.19-.25-.3-.3-.24,0-.3,0-.9-.85-.91-1.06-.23-.33-.3-.45a3.66,3.66,0,0,1-.3-.61c0-.05,0-.27,0-.3s-.08-.32-.15-.91a5.36,5.36,0,0,1-.15-.76c.06-1.81,1-2.66,2.12-3.64a3.49,3.49,0,0,1-.76-1.82,1.75,1.75,0,0,1,0-.45c0-.08.15-.15.15-.15,0-.18-.07-.44,0-.61s.14,0,.15-.15a3.75,3.75,0,0,1,.76-.91c.17-.12.39-.08.61-.15,0,0,0-.12.15-.15.78-.2,1.89-.55,2.73.15.22,0,.05-.45.3-.45.82.12,1.17-.24,2-.15.32.89,0,2.45.3,3.33a6.15,6.15,0,0,1-2,.3c-.77,0-.57-1-1.36-1.06a.73.73,0,0,0-.76.76c0,.66.67,1,1.36.91a5.42,5.42,0,0,1-.3,2c-.2.25-.86,0-1.06.3s-.18.3-.3.45S39,8,39,8a3.36,3.36,0,0,0,0,1.36,2.32,2.32,0,0,0,2.12,1.51c.82,0,2-.5,1.82-1.82,0-.35-.44-.17-.45-.45-.45.05-.92.09-1.06.45-.56.18.11.66-.3.91-1.2.06-1.39-1.14-1.06-2A2.84,2.84,0,0,1,40.83,7c.05,0,.26,0,.3,0s0-.14,0-.15.27,0,.3,0a1.8,1.8,0,0,1,.76-.3c1.08-.24,2.3-.15,3-.76.15-.55-.68-.13-.61-.61a1.08,1.08,0,0,1-.15-1.67c.05,0,0-.25,0-.3s.28-.06.45-.15.26-.29.3-.3a2,2,0,0,1,2,.45,1.23,1.23,0,0,1,.45.76C47.67,4,47.8,4.07,47.8,4.08Z" transform="translate(-0.09 -0.44)"/><path class="a" d="M33.86,12.71A4.66,4.66,0,0,1,34,14.53a4,4,0,0,1-1.51.3c-1,.2-1.57.64-2.27-.15-.1-.12,0-.34-.15-.45s-.44-.23-.61-.45-.06-.34-.15-.45-.47-.29-.61-.45-.06-.34-.15-.45-.63-.44-.91-.76-.28-.56-.45-.76a2.82,2.82,0,0,0-.61-.45c-.31.22.23,1.07.15,1.67a1.29,1.29,0,0,0,.91.15,17.63,17.63,0,0,1,.76,3.33,42.55,42.55,0,0,1-4.85,1.06,9,9,0,0,1-.76-3.18c-.09-.59.62-.39.76-.76a29.09,29.09,0,0,0-.91-4.54c-.13-.37-1.05,0-1.21-.3-.07-1.3-.55-2.18-.45-3.64a2.66,2.66,0,0,1,1.21-.3s.28,0,.3,0a2.28,2.28,0,0,1,.91-.3,2.36,2.36,0,0,1,.76-.15c.34.05.26.17.45.3s.36.07.45.15.3.42.45.61.35.33.45.45.17.44.3.61.32.3.45.45c.31.34.63.59.91.91s.71.68.76,1.06c.39-.35-.18-1.18-.15-1.82C28,5.84,27.41,6.48,27,6c.12-1.23-.62-1.6-.45-2.88a1.4,1.4,0,0,1,.61-.3c.14,0,.32,0,.45,0s1-.19,1.51-.3a7.35,7.35,0,0,1,2.57-.45c.3.91.27,2.16.61,3,0,.52-.45.66-.91.76.2,1.62.56,3.08.76,4.7.39.44,1.07-.2,1.36.15C33.61,11.38,33.76,12,33.86,12.71Z" transform="translate(-0.09 -0.44)"/><path class="a" d="M22.5,15.59A3,3,0,0,1,22.66,17c-.68.25-1.38.39-2.12.61-1.16.33-2.33.72-3.64,1.06-.09,0-.21,0-.3,0s-.38.08-.61.15-.25.1-.45.15-.65.37-1.06.15c-.2-1.06-.59-1.93-.76-3-.09-.59.62-.39.76-.76-.27-1.75-.83-3.2-1.21-4.85-.63,0-.71.25-1.21,0a32.41,32.41,0,0,1-.91-3.33,2.12,2.12,0,0,1,.76-.45c.67-.24,1.27-.26,2-.45L14.32,6c.05,0,.27,0,.3,0a6.26,6.26,0,0,1,1.82-.61c.47-.14.81-.3,1.36-.45.05,0,.27,0,.3,0A1.12,1.12,0,0,1,19,4.83a23.57,23.57,0,0,1,1.21,3.94A9.69,9.69,0,0,1,18,9.68c-.73.12-.3-.92-.91-.91-1.2,0-.25,1.33-.3,2,.76.11.85-.47,1.67-.3a9.11,9.11,0,0,1,.45,2.42,8.93,8.93,0,0,0-1.06.45c.23.53.21,1.31.61,1.67,1,0,.66-.68.61-1.51a22.42,22.42,0,0,1,2.57-.76c.57.68.32,1.73.76,2.42A1.3,1.3,0,0,1,22.5,15.59Z" transform="translate(-0.09 -0.44)"/><path class="a" d="M13,15.74a4.4,4.4,0,0,1,.3,1.36c0,.33-.12.38-.15.61s.06.43,0,.61-.14,0-.15.15a1.52,1.52,0,0,1-.15.3,3.19,3.19,0,0,1-.15.45c0,.06-.28.1-.3.15s0,.25,0,.3-.26-.05-.3,0a2.71,2.71,0,0,1-.45.61c-.13.1-.32.07-.45.15s-.22.26-.3.3-.22,0-.3,0-.26.1-.45.15-.26.1-.45.15l-.45.15c-.1.12-.12.1-.3.15s-.71.32-1.06.45c-.05,0-.27,0-.3,0s-.12.1-.3.15-.71.32-1.06.45c-.05,0-.27,0-.3,0-.28.35-1.73.32-2.12.3a14.2,14.2,0,0,1-.91-3c.18,0,.08-.23.15-.3s.26.05.3,0,.42-.27.61-.45c.12-.47-.16-.81-.3-1.21-.08-.23-.18-.6-.3-.91a24.82,24.82,0,0,1-.76-2.42c-.59-.08-.74.27-1.36.15C.75,13.41.07,12.58.09,11c.08-.15.3-.07.45-.15s.23-.27.3-.3.21,0,.3,0,.26-.1.45-.15.65-.32,1.06-.45c.09,0,.65,0,.76-.15s.12-.1.3-.15.71-.32,1.06-.45c.05,0,.27,0,.3,0,.37-.45,2.22-.38,2.88-.15.06,0,0,.14.15.15a1.84,1.84,0,0,1,.61.15,1.11,1.11,0,0,0,.3.3,1.83,1.83,0,0,1,.61.61l.3.45a1.3,1.3,0,0,1,.15.45,4.4,4.4,0,0,1,0,2.27c.18.21,1,.28,1.36.45a2.23,2.23,0,0,1,.76.61c.11.11.38.18.45.3s.06.39.15.61.14,0,.15.15A.56.56,0,0,0,13,15.74Zm-5.6,2.57c1,0,1.7-.7,1.51-1.36-.23-.81-1.14-.62-2-.3C7,17.27,7.34,17.63,7.36,18.32ZM5.69,14.07c.88-.08,1.64-.28,1.51-1.36a2,2,0,0,0-1.82-.15C5.23,13.32,5.73,13.43,5.69,14.07Z" transform="translate(-0.09 -0.44)"/><path class="a" d="M105.77,23.59a1,1,0,1,1-1.37.53,1,1,0,0,1,1.36-.54Zm-.09.18a.81.81,0,0,0-.61,1.51.78.78,0,0,0,1-.45.79.79,0,0,0-.41-1.05ZM105,25l-.22-.09.39-.93a2,2,0,0,1,.38.12.58.58,0,0,1,.3.21.28.28,0,0,1,0,.24.26.26,0,0,1-.29.14h0a.29.29,0,0,1,.08.3.68.68,0,0,0,0,.26l-.23-.1a.81.81,0,0,1,0-.25c0-.11,0-.18-.13-.23l-.1,0Zm.23-.53.1,0c.12,0,.23.05.28,0s0-.17-.14-.23l-.13,0Z" transform="translate(-0.09 -0.44)"/></svg>