<?xml version="1.0" encoding="utf-8"?>
<!-- Generator: Adobe Illustrator 21.1.0, SVG Export Plug-In . SVG Version: 6.00 Build 0)  -->
<svg version="1.1" id="Layer_1" xmlns="http://www.w3.org/2000/svg" xmlns:xlink="http://www.w3.org/1999/xlink" x="0px" y="0px"
	 viewBox="0 0 115 23" style="enable-background:new 0 0 115 23;" xml:space="preserve">
<style type="text/css">
	.st0{fill:#CDCDCD;}
	.st1{opacity:0.5;fill:#CDCDCD;}
</style>
<g>
	<g>
		<g>
			<path class="st0" d="M12.8,1.1C7.1,1.1,2.5,5.8,2.5,11.5c0,3.2,1.5,6.1,3.8,8v-3.2V5.3H9v6.2c0.8-0.5,1.7-0.7,2.7-0.7
				c0.1,0,0.2,0,0.3,0c0,0,0.1,0,0.1,0c0.1,0,0.1,0,0.2,0c0,0,0.1,0,0.1,0c0.1,0,0.1,0,0.2,0c0,0,0.1,0,0.1,0c0.1,0,0.1,0,0.2,0
				c0,0,0.1,0,0.1,0c0.1,0,0.1,0,0.2,0c0,0,0.1,0,0.1,0c0.1,0,0.1,0,0.2,0.1c0,0,0.1,0,0.1,0c0.1,0,0.1,0,0.2,0.1c0,0,0.1,0,0.1,0
				c0.1,0,0.1,0,0.2,0.1c0,0,0,0,0.1,0c0.1,0,0.1,0.1,0.2,0.1c0,0,0,0,0.1,0c0.1,0,0.1,0.1,0.2,0.1c0,0,0,0,0.1,0
				c0.1,0,0.1,0.1,0.2,0.1c0,0,0,0,0,0c0.1,0,0.1,0.1,0.2,0.1c0,0,0,0,0,0c0.1,0,0.1,0.1,0.2,0.1c0,0,0,0,0,0
				c0.1,0.1,0.1,0.1,0.2,0.2c0,0,0,0,0,0c0.1,0.1,0.1,0.1,0.2,0.2c0,0,0,0,0,0c0.1,0.1,0.1,0.1,0.2,0.2l0,0c0.9,1,1.5,2.3,1.5,3.7
				c0,3-2.4,5.5-5.5,5.5c-0.2,0-0.4,0-0.7,0c0.6,0.1,1.1,0.1,1.7,0.1c5.7,0,10.4-4.6,10.4-10.4C23.2,5.8,18.6,1.1,12.8,1.1z"/>
			<path class="st0" d="M13.6,14.3c-0.1-0.1-0.1-0.1-0.2-0.2c0,0,0,0,0,0c-0.1,0-0.1-0.1-0.2-0.1c0,0,0,0,0,0
				c-0.1,0-0.1-0.1-0.2-0.1c0,0,0,0-0.1,0c-0.1,0-0.1-0.1-0.2-0.1c0,0,0,0-0.1,0c-0.1,0-0.1,0-0.2-0.1c0,0-0.1,0-0.1,0
				c-0.1,0-0.1,0-0.2,0c0,0-0.1,0-0.1,0c-0.1,0-0.2,0-0.3,0c-1.5,0-2.7,1.2-2.7,2.7c0,1.5,1.2,2.7,2.7,2.7c1.5,0,2.7-1.2,2.7-2.7
				c0-0.7-0.3-1.3-0.7-1.8C13.8,14.4,13.7,14.3,13.6,14.3C13.6,14.3,13.6,14.3,13.6,14.3z"/>
			<path class="st0" d="M11.1,21.7c-0.4-0.1-0.7-0.1-1-0.2C10.4,21.6,10.7,21.7,11.1,21.7z"/>
			<path class="st1" d="M17.2,16.3c0-1.4-0.6-2.7-1.5-3.7l0,0l-1.9,1.9c0.4,0.5,0.7,1.1,0.7,1.8c0,1.5-1.2,2.7-2.7,2.7
				C10.2,19,9,17.8,9,16.3V21c0.3,0.2,0.7,0.3,1,0.5c0.3,0.1,0.7,0.2,1,0.2c0.2,0,0.4,0,0.7,0C14.8,21.7,17.2,19.3,17.2,16.3z"/>
			<path class="st1" d="M9,11.5V5.3H6.3v10.9C6.3,14.3,7.4,12.5,9,11.5z"/>
		</g>
		<g>
			<path class="st0" d="M25.9,5.3h2.2v4h0c0.5-0.8,1.5-1.2,2.5-1.2c1.6,0,3.3,1.3,3.3,4.2c0,2.9-1.7,4.2-3.3,4.2
				c-1.2,0-2.2-0.4-2.6-1.2h0v1h-2.1V5.3z M29.9,9.8c-1.3,0-1.9,1.2-1.9,2.6c0,1.3,0.6,2.6,1.9,2.6c1.3,0,1.9-1.2,1.9-2.6
				C31.8,11,31.2,9.8,29.9,9.8z"/>
			<path class="st0" d="M35.1,5.3h2.2v11h-2.2V5.3z"/>
			<path class="st0" d="M42.6,8.2c2.5,0,4.1,1.7,4.1,4.2c0,2.5-1.6,4.2-4.1,4.2c-2.5,0-4.1-1.7-4.1-4.2C38.4,9.8,40.1,8.2,42.6,8.2z
				 M42.6,14.9c1.5,0,1.9-1.3,1.9-2.6c0-1.3-0.4-2.6-1.9-2.6c-1.5,0-1.9,1.3-1.9,2.6C40.6,13.7,41.1,14.9,42.6,14.9z"/>
			<path class="st0" d="M51.8,8.2c2.5,0,4.1,1.7,4.1,4.2c0,2.5-1.6,4.2-4.1,4.2c-2.5,0-4.1-1.7-4.1-4.2C47.7,9.8,49.3,8.2,51.8,8.2z
				 M51.8,14.9c1.5,0,1.9-1.3,1.9-2.6c0-1.3-0.4-2.6-1.9-2.6c-1.5,0-1.9,1.3-1.9,2.6C49.9,13.7,50.4,14.9,51.8,14.9z"/>
			<path class="st0" d="M57.1,8.4h2.1v1.1h0c0.6-0.8,1.4-1.3,2.4-1.3c1,0,1.9,0.4,2.3,1.3c0.5-0.7,1.3-1.3,2.4-1.3
				c1.7,0,2.9,0.8,2.9,2.9v5.4h-2.2v-4.5c0-1.1-0.1-1.9-1.3-1.9c-1.2,0-1.5,1-1.5,2v4.5h-2.2v-4.5c0-0.9,0.1-2-1.3-2
				c-0.4,0-1.5,0.3-1.5,1.8v4.6h-2.2V8.4z"/>
			<path class="st0" d="M71,8.4h2.1v1.5h0c0.4-1,1.5-1.7,2.6-1.7c0.2,0,0.3,0,0.5,0.1v2c-0.2,0-0.5-0.1-0.8-0.1
				c-1.6,0-2.2,1.2-2.2,2.6v3.6H71V8.4z"/>
			<path class="st0" d="M78.7,12.9c0.1,1.4,0.7,2,2,2c0.9,0,1.6-0.5,1.7-1h1.9c-0.6,1.9-1.9,2.7-3.7,2.7c-2.5,0-4.1-1.7-4.1-4.2
				c0-2.4,1.7-4.2,4.1-4.2c2.7,0,4,2.3,3.9,4.8H78.7z M82.3,11.5c-0.2-1.1-0.7-1.7-1.7-1.7c-1.4,0-1.8,1.1-1.8,1.7H82.3z"/>
			<path class="st0" d="M85.6,10.8c0.1-2.1,2-2.7,3.8-2.7c1.6,0,3.5,0.4,3.5,2.3v4.2c0,0.7,0.1,1.5,0.3,1.8h-2.2
				c-0.1-0.2-0.1-0.5-0.2-0.8c-0.7,0.7-1.7,1-2.7,1c-1.5,0-2.7-0.8-2.7-2.4c0-1.8,1.4-2.2,2.7-2.4c1.3-0.2,2.6-0.2,2.6-1.1
				c0-0.9-0.6-1.1-1.4-1.1c-0.8,0-1.4,0.3-1.5,1.2H85.6z M90.7,12.5c-0.4,0.3-1.1,0.3-1.8,0.5c-0.7,0.1-1.3,0.4-1.3,1.2
				c0,0.8,0.6,1,1.3,1c1.7,0,1.8-1.4,1.8-1.8V12.5z"/>
			<path class="st0" d="M99.5,11.2c-0.1-0.9-0.7-1.4-1.6-1.4c-1.4,0-1.9,1.4-1.9,2.6c0,1.1,0.4,2.5,1.8,2.5c1,0,1.6-0.6,1.7-1.6h2.1
				c-0.3,2.1-1.7,3.3-3.9,3.3c-2.4,0-4-1.7-4-4.1c0-2.5,1.5-4.3,4.1-4.3c1.9,0,3.6,1,3.8,3H99.5z"/>
			<path class="st0" d="M102.7,5.3h2.2v4.2h0c0.6-0.9,1.5-1.3,2.3-1.3c2.3,0,2.9,1.3,2.9,3.3v4.9H108v-4.5c0-1.3-0.4-2-1.4-2
				c-1.2,0-1.7,0.7-1.7,2.3v4.2h-2.2V5.3z"/>
		</g>
	</g>
	<g>
		<path class="st0" d="M111.4,15.6h-0.3v0.7H111v-0.7h-0.3v-0.1h0.7V15.6z M112.5,16.3h-0.1v-0.7h0l-0.3,0.7H112l-0.3-0.7h0v0.7
			h-0.1v-0.9h0.2l0.3,0.6l0.3-0.6h0.2V16.3z"/>
	</g>
</g>
</svg>
