<?xml version="1.0" encoding="utf-8"?>
<!-- Generator: Adobe Illustrator 21.0.1, SVG Export Plug-In . SVG Version: 6.00 Build 0)  -->
<svg version="1.1" id="Layer_1" xmlns="http://www.w3.org/2000/svg" xmlns:xlink="http://www.w3.org/1999/xlink" x="0px" y="0px"
	 viewBox="0 0 66.7 15" style="enable-background:new 0 0 66.7 15;" xml:space="preserve">
<style type="text/css">
	.st0{fill:#cdcdcd;}
</style>
<title>Mashable</title>
<desc>Created with Sketch.</desc>
<g id="XMLID_82_">
	<path id="XMLID_94_" class="st0" d="M24.4,8.9V0.4h1.8v3.1c0.4-0.1,0.8-0.1,1.2-0.1c1.1,0,2,0.3,2.6,1c0.6,0.7,0.9,1.7,0.9,3
		c0,0.7-0.1,1.4-0.3,1.9c-0.2,0.5-0.4,1-0.6,1.2c-0.2,0.3-0.5,0.5-0.9,0.7c-0.3,0.2-0.6,0.3-0.9,0.3c-0.2,0-0.5,0.1-0.7,0.1
		c-1.1,0-1.9-0.3-2.4-0.8C24.6,10.3,24.4,9.7,24.4,8.9 M26.2,9.1c0,0.6,0.5,0.9,1.4,0.9c0.6,0,1-0.2,1.2-0.6
		c0.2-0.4,0.3-1.1,0.3-2.1c0-0.9-0.1-1.5-0.4-1.9c-0.3-0.4-0.7-0.5-1.3-0.5c-0.4,0-0.8,0-1.2,0.1V9.1z"/>
	<path id="XMLID_93_" class="st0" d="M31.1,3.5H33l1.7,5.6l1.7-5.6h1.8l-2.8,8.2c-0.4,1.2-0.8,2-1.3,2.4c-0.5,0.4-1,0.6-1.5,0.6
		c-0.4,0-0.8-0.1-1.1-0.2v-1.6c0.3,0.1,0.6,0.2,0.9,0.2c0.5,0,1-0.6,1.4-1.9L31.1,3.5z"/>
	<path id="XMLID_92_" class="st0" d="M39.1,11.5V4.2c1.1-0.6,2.2-0.9,3.4-0.9c1,0,1.9,0.3,2.5,0.9c0.6,0.6,0.9,1.4,0.9,2.5v4.8h-1.8
		v-5c0-0.2,0-0.4-0.1-0.5c0-0.1-0.1-0.3-0.2-0.5c-0.1-0.2-0.3-0.3-0.5-0.4c-0.3-0.1-0.6-0.1-1-0.1c-0.4,0-0.9,0-1.4,0.1v6.3H39.1z"
		/>
	<path id="XMLID_89_" class="st0" d="M47,7.4c0-1.3,0.3-2.3,0.9-3c0.6-0.7,1.5-1,2.6-1c0.4,0,0.8,0,1.2,0.1V0.4h1.8v8.5
		c0,0.7-0.3,1.4-0.8,1.9c-0.5,0.5-1.3,0.8-2.4,0.8c-0.3,0-0.5,0-0.7-0.1c-0.2,0-0.5-0.2-0.9-0.3c-0.3-0.2-0.6-0.4-0.9-0.7
		c-0.2-0.3-0.5-0.7-0.6-1.2C47.1,8.7,47,8.1,47,7.4 M48.8,7.3c0,0.9,0.1,1.6,0.3,2c0.2,0.4,0.6,0.6,1.2,0.6c0.9,0,1.4-0.3,1.4-0.9V5
		c-0.4-0.1-0.7-0.1-1.2-0.1c-0.6,0-1,0.2-1.3,0.5C48.9,5.8,48.8,6.4,48.8,7.3"/>
	<path id="XMLID_86_" class="st0" d="M54.7,7.6c0-1.3,0.3-2.3,0.8-3.1C56,3.7,56.9,3.3,58,3.3c1.1,0,1.9,0.4,2.5,1.1
		c0.6,0.7,0.8,1.7,0.8,2.8c0,0.5,0,0.8,0,1h-4.9c0,0.7,0.2,1.2,0.6,1.4c0.3,0.2,0.8,0.4,1.3,0.4c0.9,0,1.7-0.2,2.6-0.6v1.6
		c-0.8,0.5-1.8,0.7-2.8,0.7c-0.3,0-0.6,0-0.9-0.1c-0.3-0.1-0.6-0.2-0.9-0.4c-0.3-0.2-0.6-0.4-0.8-0.7c-0.2-0.3-0.4-0.7-0.6-1.2
		C54.7,8.8,54.7,8.2,54.7,7.6 M56.5,6.9h3c0-0.5-0.2-1-0.5-1.4c-0.3-0.4-0.6-0.6-1.1-0.6c-0.5,0-0.8,0.2-1.1,0.5
		C56.7,5.7,56.5,6.2,56.5,6.9"/>
	<path id="XMLID_85_" class="st0" d="M62.7,11.5V4.2C62.8,4.1,63,4.1,63.2,4c0.2-0.1,0.6-0.2,1.3-0.4c0.7-0.2,1.3-0.2,1.9-0.3V5
		c-0.8,0-1.4,0.1-1.9,0.3v6.2H62.7z"/>
	<path id="XMLID_83_" class="st0" d="M14.8,0.3c-1.4,0-2.6,0.6-3.4,1.5L5.3,7.9L3.5,6.2C3.2,5.9,3.1,5.4,3.1,5c0-1,0.8-1.8,1.8-1.8
		c0.5,0,0.9,0.2,1.2,0.5C6.2,3.7,6.5,4,6.5,4l1.9-1.9L7.9,1.5h0C7.1,0.8,6,0.3,4.8,0.3c-2.5,0-4.6,2-4.6,4.5c0,1.2,0.4,2.2,1.1,3
		l3.9,3.9l8.2-8.2c0.3-0.3,0.8-0.5,1.2-0.5c1,0,1.8,0.8,1.8,1.8c0,0.5-0.2,0.9-0.5,1.2l-5.4,5.4c-0.2,0.2-0.5,0.3-0.8,0.3
		c-0.3,0-0.6-0.1-0.8-0.4l-0.4-0.4l-1.9,1.9L7,13.5c0.7,0.7,1.7,1.2,2.8,1.2c0,0,0,0,0,0c1.1,0,2-0.4,2.7-1.2l5.7-5.7
		c0.7-0.8,1.1-1.9,1.1-3C19.3,2.3,17.3,0.3,14.8,0.3z"/>
</g>
</svg>
