<?xml version="1.0" encoding="UTF-8"?>
<svg width="137px" height="19px" viewBox="0 0 137 19" version="1.1" xmlns="http://www.w3.org/2000/svg" xmlns:xlink="http://www.w3.org/1999/xlink">
    <title>Bynder</title>
    <defs></defs>
    <g id="Report-Landing" stroke="none" stroke-width="1" fill="none" fill-rule="evenodd">
        <g id="LandingPage" transform="translate(-1203.000000, -6304.000000)" fill="#2D2D2D">
            <g id="footer-logo" transform="translate(50.000000, 5859.000000)">
                <g transform="translate(50.000000, 440.000000)" id="Bynder">
                    <g transform="translate(1092.000000, 5.000000)">
                        <text id="powered-by" font-family="Roboto, Helvetica, Arial" font-size="10" font-weight="normal">
                            <tspan x="10.8818359" y="13.006689">powered by</tspan>
                        </text>
                        <g id="Bynder-Logo" transform="translate(67.000000, 0.000000)">
                            <path d="M30.2187051,10.8925751 C30.2187051,11.6145951 30.771819,11.9756974 31.878228,11.9756974 C32.5817795,11.9756974 33.074664,11.7147885 33.3573345,11.1929708 C33.6399144,10.6712454 33.7812949,9.81609547 33.7812949,8.62789003 C33.7812949,7.49882271 33.5993388,6.70954578 33.2356984,6.25996701 C32.8717862,5.81020371 32.3441225,5.58527593 31.6527981,5.58527593 C31.1115489,5.58527593 30.6336084,5.64118497 30.2187051,5.75272627 L30.2187051,10.8925751 Z M28,10.6653408 L28,0 L30.2187051,0 L30.2187051,3.85772358 C30.7477272,3.75310172 31.2528388,3.70060627 31.7338586,3.70060627 C33.1050052,3.70060627 34.1587927,4.13496229 34.8953118,5.00367433 C35.631831,5.87238637 36,7.12305124 36,8.75594572 C36,9.65408842 35.8922211,10.4458563 35.676754,11.1309727 C35.4611056,11.8161813 35.2066932,12.3357848 34.9133354,12.6897831 C34.6199776,13.0437814 34.2682924,13.3322757 33.8582798,13.5550815 C33.4480861,13.7781641 33.0920536,13.9157225 32.7897293,13.968218 C32.4873145,14.0206211 32.1834505,14.0468227 31.878228,14.0468227 C30.5614238,14.0468227 29.5858891,13.7160737 28.9515335,13.0541144 C28.3170873,12.3922474 28,11.596051 28,10.6653408 L28,10.6653408 Z" id="Fill-1"></path>
                            <path d="M37,4.01337793 L39.4443202,4.01337793 L41.5889194,11.024421 L43.6961828,4.01337793 L46,4.01337793 L42.4880824,14.3341336 C41.9761022,15.7994346 41.420391,16.7869563 40.8210431,17.2962355 C40.2216011,17.8054221 39.6002466,18.0602007 38.9572618,18.0602007 C38.4828055,18.0602007 37.9988506,17.9668127 37.5057733,17.7802222 L37.5057733,15.7343966 C37.874053,15.8983813 38.2362198,15.9802811 38.5920856,15.9802811 C39.2537853,15.9802811 39.8688388,15.1673058 40.4370579,13.5416332 L37,4.01337793 Z" id="Fill-3"></path>
                            <path d="M47,14.0468227 L47,5.09593358 C48.2987589,4.37432066 49.6522051,4.01337793 51.0605995,4.01337793 C52.295455,4.01337793 53.2606995,4.37268538 53.9564197,5.09111858 C54.6520529,5.80982433 55,6.81661199 55,8.1117541 L55,14.0468227 L52.8701502,14.0468227 L52.8701502,7.90879762 C52.8701502,7.64469983 52.8485013,7.42393697 52.8052036,7.24669075 C52.7618189,7.06953536 52.6753103,6.88420358 52.545417,6.69087709 C52.4155237,6.49755061 52.203469,6.35255574 51.9090791,6.2558925 C51.6146891,6.15922925 51.2366596,6.11089763 50.7749038,6.11089763 C50.2554177,6.11089763 49.7069794,6.16895009 49.1298498,6.28496415 L49.1298498,14.0468227 L47,14.0468227 Z" id="Fill-5"></path>
                            <path d="M59.2137177,8.62783337 C59.2137177,9.80948064 59.35469,10.6627798 59.6367251,11.1879154 C59.9186698,11.7130509 60.4106271,11.975711 61.1125068,11.975711 C62.2283571,11.975711 62.7862823,11.6146111 62.7862823,10.8925035 L62.7862823,5.75268849 C62.3543286,5.64779053 61.8684258,5.59197412 61.3284836,5.58523925 C60.6385324,5.58523925 60.1136815,5.81016555 59.7537502,6.25992589 C59.3937285,6.70950172 59.2137177,7.49886571 59.2137177,8.62783337 M57,8.75598047 C57,7.12300446 57.3658955,5.87244006 58.0978673,5.00373372 C58.8297488,4.13502739 59.8826134,3.70067422 61.2564612,3.70067422 C61.7483282,3.70067422 62.2582686,3.75307707 62.7862823,3.85769824 L62.7862823,0 L65,0 L65,10.6652708 C65,11.5894245 64.680553,12.3840472 64.0416591,13.0490467 C63.4026749,13.714323 62.426351,14.0468227 61.1125068,14.0468227 C60.8065245,14.0468227 60.5019881,14.0206213 60.1990783,13.9681262 C59.8961684,13.9156311 59.5422013,13.7781659 59.1372673,13.5550848 C58.7323333,13.3322804 58.3797217,13.043788 58.0798843,12.689792 C57.7798663,12.3357038 57.5249413,11.8161037 57.3149286,11.1308996 C57.104916,10.44588 57,9.65411727 57,8.75598047" id="Fill-7"></path>
                            <path d="M68.1555248,8.30801665 L71.765635,8.30801665 C71.7071207,7.64201366 71.5246266,7.07950993 71.2179766,6.62068406 C70.9112387,6.16203679 70.4891441,5.93262386 69.9518687,5.93262386 C69.4143294,5.93262386 68.9952265,6.11970837 68.6944719,6.49360948 C68.3935414,6.86751059 68.213863,7.47234275 68.1555248,8.30801665 M66,9.14413705 C66,7.58593296 66.3198487,6.34126286 66.959458,5.41012675 C67.5991553,4.47890133 68.6140478,4.01337793 70.0043996,4.01337793 C71.3187268,4.01337793 72.3132933,4.46630996 72.9880112,5.37208474 C73.6627291,6.27803812 74,7.39268672 74,8.71647705 C74,9.26138858 73.9882092,9.66359794 73.9647155,9.92328374 L68.1555248,9.92328374 C68.213863,10.7657445 68.4460723,11.3294091 68.8521525,11.6144562 C69.2580567,11.8995927 69.785301,12.0421162 70.4337975,12.0421162 C71.4852944,12.0421162 72.5016828,11.7918963 73.4830507,11.2914564 L73.4830507,13.1726603 C72.489892,13.7555246 71.3653622,14.0468227 70.1095493,14.0468227 C69.7121802,14.0468227 69.3384808,14.0119956 68.9880112,13.9423412 C68.6375415,13.8727761 68.2743131,13.727127 67.898326,13.5053046 C67.5223388,13.2835715 67.1987945,13.0017392 66.9280451,12.6597184 C66.6572076,12.3176082 66.4346774,11.8441371 66.2608944,11.2392156 C66.0869355,10.6343835 66,9.93605371 66,9.14413705" id="Fill-9"></path>
                            <path d="M76,14.0468227 L76,5.0475111 C76.1633292,4.97092547 76.3887806,4.87998571 76.6764526,4.77460097 C76.9640262,4.66930708 77.5424223,4.51922467 78.4117392,4.3246263 C79.2809577,4.12993708 80.1436785,4.02618762 81,4.01337793 L81,6.05284518 C79.9934432,6.06592742 79.1307224,6.17567291 78.4117392,6.38235419 L78.4117392,14.0468227 L76,14.0468227 Z" id="Fill-11"></path>
                            <path d="M18.2815673,0 C16.5687206,0 15.0311601,0.753500581 13.9834353,1.94481354 L6.31475841,9.58971258 L4.1192249,7.39898284 C3.738386,6.96969506 3.54053917,6.44858251 3.54146759,5.86242355 C3.54406717,4.58076835 4.57675151,3.55818689 5.86094549,3.55966943 C6.44371629,3.56013273 6.95666972,3.75693982 7.38392975,4.13369011 C7.52077922,4.25460971 7.60127345,4.34782437 7.60340882,4.35014084 L7.9085813,4.65480266 L9.7837162,2.78365279 L10.3367775,2.23112894 L10.3372417,2.23066564 L10.3166307,2.21148529 L9.83468659,1.73021598 C9.77452482,1.66739338 9.71259904,1.60559002 9.64965199,1.54554718 L9.63674692,1.5329456 L9.63646839,1.5329456 C8.6205885,0.571426228 7.23389667,0.00203849149 5.7225177,0.00203849149 C2.56532418,0.00203849149 0,2.55070881 0,5.7016607 C0,7.14500533 0.54284863,8.48892717 1.40646723,9.47212868 L6.33026306,14.4069459 L16.6189483,4.1384157 C17.0494578,3.7583297 17.5620398,3.55874285 18.1496384,3.55966943 C19.4344823,3.5624492 20.4585323,4.59661299 20.4552828,5.87928743 C20.4537045,6.46081346 20.2568789,6.97673712 19.8784539,7.40315248 L13.0404366,14.227466 C12.7819638,14.5006239 12.4041887,14.6535108 11.9977253,14.6562905 C11.5913548,14.6535108 11.2296414,14.48376 10.9711686,14.2106021 L10.456544,13.7007013 L8.03939603,16.1131633 L8.53498795,16.6074975 L8.53424521,16.601382 C9.42098153,17.5034145 10.6368436,18.0583475 11.9886268,18.0583475 C11.9921548,18.0583475 11.9968897,18.0592741 12.0001392,18.0592741 C12.0036672,18.0592741 12.0073809,18.0602007 12.0109089,18.0602007 C13.3631563,18.0602007 14.5783685,17.5072135 15.4646406,16.6047177 L15.4638978,16.6042545 L15.4629694,16.6028646 L22.5910259,9.47583503 C23.4546445,8.49309682 24.0002784,7.1473218 23.9999999,5.70351387 C24.0002784,2.55256198 21.4386679,0 18.2815673,0" id="Fill-13"></path>
                        </g>
                    </g>
                </g>
            </g>
        </g>
    </g>
</svg>