<svg xmlns="http://www.w3.org/2000/svg" viewBox="0 0 53.9 17"><defs><style>.a{fill:#cdcdcd;}</style></defs><title>Dan-grey</title><path class="a" d="M9.13,7.7h-1a.34.34,0,0,0-.25.11.34.34,0,0,0-.11.25v.78H9.49V8.07a.34.34,0,0,0-.11-.25A.35.35,0,0,0,9.13,7.7Z" transform="translate(-0.63 -0.29)"/><path class="a" d="M15.93,4.54l0,0a11,11,0,0,0-3.38-2.59,10.76,10.76,0,0,0-4-1.63h0a10.82,10.82,0,0,0-4,1.63A10.75,10.75,0,0,0,1.21,4.55h0A10.56,10.56,0,0,0,.63,8.8,10.92,10.92,0,0,0,1.19,13l0,0h0a10.73,10.73,0,0,0,3.39,2.62,10.78,10.78,0,0,0,4,1.63,10.69,10.69,0,0,0,4-1.63A10.62,10.62,0,0,0,15.93,13v0a10.83,10.83,0,0,0,.56-4.24A10.8,10.8,0,0,0,15.93,4.54ZM5.7,9.18A1.32,1.32,0,0,1,4.38,10.5H2.53V7.11H4.38A1.32,1.32,0,0,1,5.7,8.43Zm4.4,1.24v0H9.49v-1H7.82v1H7.21V8.07a1,1,0,0,1,1-1h1a1,1,0,0,1,1,1Zm4.55-3.25v3.3h-.47v0L12.38,8.28v2.2h-.62V7.12h.48v0L14,9.29V7.12h.62Z" transform="translate(-0.63 -0.29)"/><path class="a" d="M4.38,7.73H3.14V9.89H4.38a.71.71,0,0,0,.7-.7V8.43A.7.7,0,0,0,4.38,7.73Z" transform="translate(-0.63 -0.29)"/><path class="a" d="M20.28,5.21h1.16A1.77,1.77,0,0,1,22,5.3a1.36,1.36,0,0,1,.48.27,1.32,1.32,0,0,1,.33.46,1.56,1.56,0,0,1,.12.65,1.36,1.36,0,0,1-.51,1.11,1.57,1.57,0,0,1-.5.27,1.75,1.75,0,0,1-.54.09H20.28Zm.91,2.46a1.85,1.85,0,0,0,.46-.06A1.1,1.1,0,0,0,22,7.44a.82.82,0,0,0,.25-.31,1,1,0,0,0,.09-.46,1.14,1.14,0,0,0-.08-.46.79.79,0,0,0-.23-.31,1,1,0,0,0-.35-.17,1.64,1.64,0,0,0-.44-.06H20.8v2Z" transform="translate(-0.63 -0.29)"/><path class="a" d="M23.41,5.21h.52V8.14h-.52Z" transform="translate(-0.63 -0.29)"/><path class="a" d="M27.18,7.93A2.53,2.53,0,0,1,26,8.22a1.71,1.71,0,0,1-.62-.11,1.4,1.4,0,0,1-.81-.79,1.63,1.63,0,0,1-.12-.63,1.7,1.7,0,0,1,.12-.64,1.44,1.44,0,0,1,.32-.49,1.41,1.41,0,0,1,.49-.31A1.71,1.71,0,0,1,26,5.14a2.37,2.37,0,0,1,.63.08,1.3,1.3,0,0,1,.53.29l-.39.39a1,1,0,0,0-.34-.21A1.21,1.21,0,0,0,26,5.61a1,1,0,0,0-.41.08.94.94,0,0,0-.32.22,1,1,0,0,0-.21.33,1.15,1.15,0,0,0-.07.41,1.26,1.26,0,0,0,.07.43,1,1,0,0,0,.21.34,1,1,0,0,0,.32.23,1,1,0,0,0,.41.08,1.81,1.81,0,0,0,.37,0,1.06,1.06,0,0,0,.31-.12V6.9h-.6V6.43h1.12Z" transform="translate(-0.63 -0.29)"/><path class="a" d="M27.79,5.21h.52V8.14h-.52Z" transform="translate(-0.63 -0.29)"/><path class="a" d="M29.55,5.68h-.9V5.21H31v.47h-.9V8.14h-.52Z" transform="translate(-0.63 -0.29)"/><path class="a" d="M31.9,5.21h.45l1.26,2.93H33l-.27-.67H31.47l-.27.67h-.58ZM32.56,7l-.45-1.19L31.65,7Z" transform="translate(-0.63 -0.29)"/><path class="a" d="M33.94,5.21h.52V7.67h1.25v.47H33.94Z" transform="translate(-0.63 -0.29)"/><path class="a" d="M38.26,5.21h.45L40,8.14h-.6l-.27-.67H37.84l-.27.67H37ZM38.93,7l-.45-1.19L38,7Z" transform="translate(-0.63 -0.29)"/><path class="a" d="M42.91,7.93a2.53,2.53,0,0,1-1.21.29,1.72,1.72,0,0,1-.62-.11,1.4,1.4,0,0,1-.81-.79,1.63,1.63,0,0,1-.12-.63,1.7,1.7,0,0,1,.12-.64,1.44,1.44,0,0,1,.32-.49,1.41,1.41,0,0,1,.49-.31,1.72,1.72,0,0,1,.62-.11,2.37,2.37,0,0,1,.63.08,1.3,1.3,0,0,1,.53.29l-.39.39a1,1,0,0,0-.34-.21,1.21,1.21,0,0,0-.42-.07,1,1,0,0,0-.41.08.94.94,0,0,0-.32.22,1,1,0,0,0-.21.33,1.15,1.15,0,0,0-.07.41,1.26,1.26,0,0,0,.07.43,1,1,0,0,0,.21.34,1,1,0,0,0,.32.23,1,1,0,0,0,.41.08,1.81,1.81,0,0,0,.37,0,1.06,1.06,0,0,0,.31-.12V6.9h-.6V6.43h1.12Z" transform="translate(-0.63 -0.29)"/><path class="a" d="M43.53,5.21h1.94v.47H44V6.4H45.4v.47H44v.8h1.5v.47h-2Z" transform="translate(-0.63 -0.29)"/><path class="a" d="M46.06,5.21h.69l1.42,2.18h0V5.21h.52V8.14H48L46.59,5.89h0V8.14h-.52Z" transform="translate(-0.63 -0.29)"/><path class="a" d="M51.37,5.9a.88.88,0,0,0-.31-.23.85.85,0,0,0-.3-.06,1,1,0,0,0-.41.08.94.94,0,0,0-.32.22,1,1,0,0,0-.21.33,1.15,1.15,0,0,0-.07.41,1.26,1.26,0,0,0,.07.43,1,1,0,0,0,.21.34,1,1,0,0,0,.32.23,1,1,0,0,0,.41.08.76.76,0,0,0,.35-.08.94.94,0,0,0,.31-.27l.43.31a1.17,1.17,0,0,1-.48.4,1.51,1.51,0,0,1-.61.12,1.72,1.72,0,0,1-.62-.11,1.4,1.4,0,0,1-.81-.79,1.63,1.63,0,0,1-.12-.63,1.7,1.7,0,0,1,.12-.64,1.44,1.44,0,0,1,.32-.49,1.41,1.41,0,0,1,.49-.31,1.72,1.72,0,0,1,.62-.11,1.43,1.43,0,0,1,.55.11,1.29,1.29,0,0,1,.47.36Z" transform="translate(-0.63 -0.29)"/><path class="a" d="M52.91,6.89l-1.1-1.68h.65l.72,1.17.73-1.17h.62l-1.1,1.68V8.14h-.52Z" transform="translate(-0.63 -0.29)"/><path class="a" d="M20.28,9.49H21l1.42,2.18h0V9.49h.52v2.93h-.66l-1.45-2.25h0v2.25h-.52Z" transform="translate(-0.63 -0.29)"/><path class="a" d="M23.58,9.49h1.94V10H24.1v.72h1.35v.47H24.1V12h1.5v.47h-2Z" transform="translate(-0.63 -0.29)"/><path class="a" d="M26.71,10h-.9V9.49h2.32V10h-.9v2.46h-.52Z" transform="translate(-0.63 -0.29)"/><path class="a" d="M28.16,9.49h.57l.55,2.11h0L30,9.49h.51l.65,2.11h0l.58-2.11h.53l-.85,2.93h-.5l-.68-2.23h0l-.68,2.23H29Z" transform="translate(-0.63 -0.29)"/><path class="a" d="M32.39,11a1.7,1.7,0,0,1,.12-.64,1.44,1.44,0,0,1,.32-.49,1.41,1.41,0,0,1,.49-.31,1.72,1.72,0,0,1,.62-.11,1.74,1.74,0,0,1,.63.1,1.38,1.38,0,0,1,.49.31,1.42,1.42,0,0,1,.32.49,1.68,1.68,0,0,1,.12.64,1.63,1.63,0,0,1-.12.63,1.43,1.43,0,0,1-.32.48,1.47,1.47,0,0,1-.49.32,1.75,1.75,0,0,1-.63.12,1.71,1.71,0,0,1-.62-.11,1.4,1.4,0,0,1-.81-.79A1.63,1.63,0,0,1,32.39,11Zm.55,0a1.26,1.26,0,0,0,.07.43,1,1,0,0,0,.2.34,1,1,0,0,0,.32.23,1,1,0,0,0,.41.08,1,1,0,0,0,.41-.08,1,1,0,0,0,.32-.23,1,1,0,0,0,.2-.34,1.26,1.26,0,0,0,.07-.43,1.15,1.15,0,0,0-.07-.41,1,1,0,0,0-.2-.33.94.94,0,0,0-.32-.22,1,1,0,0,0-.41-.08,1,1,0,0,0-.41.08.94.94,0,0,0-.32.22,1,1,0,0,0-.2.33A1.14,1.14,0,0,0,32.94,10.94Z" transform="translate(-0.63 -0.29)"/><path class="a" d="M36,9.49h1a2.07,2.07,0,0,1,.41,0,1,1,0,0,1,.35.13.71.71,0,0,1,.24.26.83.83,0,0,1,.09.41.82.82,0,0,1-.18.53.75.75,0,0,1-.5.26l.78,1.3h-.63l-.68-1.24h-.38v1.24H36Zm.93,1.24h.22a.69.69,0,0,0,.21,0,.35.35,0,0,0,.15-.12.38.38,0,0,0,.06-.23.36.36,0,0,0-.05-.21.34.34,0,0,0-.14-.12.65.65,0,0,0-.19-.05h-.66v.8Z" transform="translate(-0.63 -0.29)"/><path class="a" d="M38.61,9.49h.52v1.24h0l1.21-1.24h.7L39.7,10.85l1.46,1.58h-.73L39.16,11h0v1.44h-.52Z" transform="translate(-0.63 -0.29)"/></svg>