<?xml version="1.0" encoding="utf-8"?>
<!-- Generator: Adobe Illustrator 21.1.0, SVG Export Plug-In . SVG Version: 6.00 Build 0)  -->
<svg version="1.1" id="Layer_1" xmlns="http://www.w3.org/2000/svg" xmlns:xlink="http://www.w3.org/1999/xlink" x="0px" y="0px"
	 viewBox="0 0 56 23" style="enable-background:new 0 0 56 23;" xml:space="preserve">
<style type="text/css">
	.st0{fill:#CDCDCD;}
	.st1{fill:#FFFFFF;}
</style>
<g>
	<g>
		<path class="st0" d="M0.9,22.1c0-7.1,0-14.2,0-21.2c18,0,36.1,0,54.1,0c0,7.1,0,14.2,0,21.2C37,22.1,19,22.1,0.9,22.1z M17.1,12.8
			c-0.7-0.1-0.7-0.1-0.9,0.5c-0.9,2.1-3.1,3.4-5.4,3c-2.5-0.5-4.1-2.5-4-5c0.1-2.4,2.2-4.5,4.6-4.6c1.2,0,2.2,0.3,3.2,1
			c0.2-0.2,0.3-0.3,0.4-0.5C13.7,5.8,11,5.4,8.8,6.7C6.6,8,5.6,10.8,6.4,13.2c0.8,2.5,3.2,4.1,5.9,3.8
			C14.6,16.8,16.8,14.9,17.1,12.8z M15.6,12.8c-0.5-0.1-0.7,0-1,0.4c-0.7,1.2-1.9,1.8-3.3,1.6c-1.6-0.2-2.9-1.5-2.9-3.2
			C8.3,10,9.4,8.5,11,8.2c0.9-0.2,1.8,0,2.7,0.5c0.2-0.2,0.3-0.3,0.5-0.5C13,7.2,11,7.1,9.5,8C8,9,7.3,10.9,7.8,12.7
			c0.5,1.8,2.2,2.9,4,2.9C13.5,15.5,15.2,14.3,15.6,12.8z M23.2,15.2c0-0.1,0-0.2,0-0.3c-0.1-0.9-0.3-1.9-0.4-2.8
			c0-0.2,0-0.4-0.3-0.3c-0.2,0-0.5-0.1-0.6,0.3c-0.2,0.7-0.4,1.4-0.7,2.1c-0.2-0.7-0.5-1.4-0.7-2.1c-0.1-0.4-0.4-0.2-0.6-0.3
			c-0.3,0-0.3,0.2-0.3,0.3c0,0.3-0.1,0.5-0.1,0.8c-0.1,0.8-0.2,1.5-0.3,2.3c0.1,0,0.2,0,0.2,0c0.3,0.1,0.5-0.1,0.5-0.4
			c0-0.2,0-0.4,0.1-0.6c0.1-0.5,0.1-1,0.2-1.6c0.3,0.8,0.5,1.5,0.7,2.3c0,0.1,0,0.3,0.3,0.3c0.3,0,0.3-0.2,0.3-0.3
			c0.2-0.7,0.5-1.4,0.7-2.3c0.1,0.9,0.2,1.7,0.3,2.6C22.8,15.2,23,15.2,23.2,15.2z M21.9,9.1c0,0.4-0.2,0.6-0.6,0.6
			c-0.6,0.1-1-0.2-1.2-0.6c-0.2-0.5-0.1-1.2,0.4-1.5c0.4-0.3,1-0.2,1.6,0.2c0.1-0.1,0.3-0.2,0.4-0.3c-0.5-0.7-1.5-0.9-2.3-0.5
			c-0.8,0.4-1.1,1.3-0.8,2.2c0.3,0.8,1.1,1.3,1.9,1.2c0.8-0.1,1.3-0.7,1.4-1.6c0-0.1-0.1-0.3-0.1-0.3c-0.5,0-1,0-1.5,0
			c0,0.2,0,0.4,0,0.5C21.3,9.1,21.6,9.1,21.9,9.1z M37.9,10.3c0-0.5,0-0.9,0-1.3c0-0.3,0.2-0.5,0.5-0.5c0.3,0,0.3,0.3,0.4,0.5
			c0,0.2,0,0.4,0,0.6c0,0.2,0,0.5,0,0.7c0.2,0,0.4,0,0.7,0c0-0.3,0-0.7,0-1c0-0.2,0-0.3,0.1-0.5c0.1-0.2,0.2-0.4,0.5-0.3
			c0.2,0,0.3,0.2,0.3,0.4c0,0.5,0,0.9,0,1.4c0.2,0,0.4,0,0.7,0c0-0.6,0-1.1,0-1.7c0-0.5-0.4-0.8-0.9-0.6c-0.2,0.1-0.5,0.2-0.7,0.4
			c-0.4-0.5-0.8-0.5-1.4,0C37.8,7.8,37.5,8,37.2,8c0,0.8,0,1.5,0,2.2C37.4,10.3,37.6,10.3,37.9,10.3z M39.2,15.2c0-0.1,0-0.2,0-0.3
			c0-0.4,0-0.7,0-1.1c0-0.3,0.2-0.5,0.5-0.5c0.3,0,0.4,0.3,0.4,0.5c0,0.4,0,0.7,0,1.1c0,0.2,0.1,0.3,0.3,0.3c0.1,0,0.2,0,0.4,0
			c0-0.2,0-0.4,0-0.5c0-0.3,0-0.6,0.1-0.9c0-0.1,0.2-0.3,0.3-0.4c0.3-0.1,0.5,0,0.5,0.4c0,0.5,0,0.9,0,1.4c0.3,0,0.4,0,0.7,0
			c0-0.6,0-1.2,0-1.8c0-0.4-0.5-0.7-0.9-0.6c-0.2,0.1-0.4,0.2-0.6,0.3c-0.3-0.1-0.5-0.3-0.8-0.3c-0.3,0-0.5,0.2-0.8,0.3
			c-0.1-0.3-0.2-0.3-0.7-0.2c0,0.7,0,1.5,0,2.2C38.8,15.2,39,15.2,39.2,15.2z M46.2,8.3C46,8.2,45.9,8,45.7,8c-0.4-0.1-0.7,0-1,0.2
			c-0.4,0.4-0.4,1-0.2,1.5c0.1,0.4,0.4,0.6,0.8,0.6c0.2,0,0.4,0,0.6-0.1c0.1,0,0.2-0.1,0.4-0.2c0,0.2,0,0.3,0,0.5
			c-0.1,0.4-0.6,0.6-0.8,0.3c-0.3-0.3-0.5-0.1-0.8-0.1c0.1,0.5,0.3,0.6,1,0.7c0.7,0,1.1-0.2,1.2-0.6c0,0,0-0.1,0-0.1
			c0-0.9,0-1.7,0-2.6C46.6,8,46.3,7.9,46.2,8.3z M34.4,13.2c-0.7-0.6-1.5-0.4-1.7,0.4c-0.1,0.3-0.1,0.7,0,1c0.1,0.5,0.5,0.7,1,0.7
			c0.3,0,0.5-0.2,0.8-0.2c0,0.1,0,0.2,0,0.3c0,0.4-0.5,0.7-0.8,0.4c-0.3-0.3-0.5-0.2-0.8-0.1c0.1,0.2,0.2,0.4,0.3,0.4
			c0.5,0.3,1.1,0.3,1.6,0c0.2-0.1,0.3-0.4,0.3-0.6c0-0.7,0-1.5,0-2.2c0-0.1-0.1-0.3-0.2-0.4C34.7,12.9,34.4,12.8,34.4,13.2z
			 M28.3,10.2c0.6,0.6,1.5,0.2,1.6-0.6c0-0.3,0-0.6,0-0.9c-0.2-0.7-1-0.9-1.5-0.4c-0.1,0-0.1,0.1-0.2,0.2c0-0.6,0-1.1,0-1.6
			c-0.2,0-0.4,0-0.6,0c0,1.2,0,2.4,0,3.7C27.8,10.3,28,10.2,28.3,10.2z M32.8,10.4c0-0.8,0-1.6,0-2.3c-0.3,0-0.6-0.2-0.7,0.2
			C31.9,8,31.6,7.9,31.2,8c-0.4,0.1-0.7,0.4-0.8,0.8c-0.1,0.6,0,1.3,0.5,1.5c0.4,0.3,0.9,0.2,1.2-0.1C32.3,10.3,32.5,10.3,32.8,10.4
			z M26.2,15.2c0-0.7,0-1.5,0-2.2c-0.3,0-0.6-0.1-0.7,0.3c-0.3-0.3-0.6-0.4-0.9-0.3c-0.4,0.1-0.7,0.4-0.8,0.9
			c-0.1,0.5,0,1.1,0.5,1.4c0.4,0.3,0.8,0.2,1.3-0.2C25.6,15.3,25.7,15.3,26.2,15.2z M31.5,13.2c-0.3-0.3-0.6-0.5-1-0.4
			c-0.4,0.1-0.7,0.4-0.8,0.9c-0.1,0.6,0.1,1.2,0.5,1.4c0.4,0.2,0.9,0.2,1.3-0.2c0.1,0.4,0.4,0.2,0.6,0.2c0-0.8,0-1.5,0-2.3
			C31.9,13,31.5,12.7,31.5,13.2z M43.2,10.1c0.1,0.3,0.3,0.2,0.5,0.2c0.1,0,0.2-0.2,0.2-0.3c0-0.5,0-1.1,0-1.6
			c0-0.1-0.1-0.3-0.2-0.4c-0.2-0.1-0.5-0.1-0.5,0.3C42.8,8,42.6,7.9,42.3,8c-0.6,0.1-0.9,0.6-0.9,1.3c0,0.5,0.1,0.9,0.6,1.1
			C42.5,10.5,42.9,10.4,43.2,10.1z M16.5,12c-0.5-0.7-0.5-0.7-1.3-0.7c-1.1,0-2.2,0-3.4,0c-0.5,0-0.8,0.2-1,0.7
			C12.7,12,14.6,12,16.5,12z M24.4,9.2c0,0.7,0.5,1.3,1.3,1.3c0.7,0,1.3-0.5,1.3-1.2c0-0.7-0.5-1.3-1.3-1.3
			C25,7.9,24.4,8.5,24.4,9.2z M48.1,9.3c0.6,0,1.2,0,1.7,0c0.1-0.8-0.3-1.2-0.9-1.4c-0.6-0.1-1.2,0.2-1.4,0.8
			c-0.2,0.7,0.1,1.3,0.7,1.5c0.6,0.2,1.4,0,1.5-0.5c-0.1-0.1-0.3-0.1-0.4-0.2C48.7,10,48.2,9.9,48.1,9.3z M37.9,14.7
			c-0.3-0.2-0.4-0.3-0.8-0.1c-0.3,0.3-0.7,0-0.8-0.4c0,0,0,0,0.1,0c0.5,0,0.9,0,1.4,0c0.2,0,0.3,0,0.3-0.2c0-0.4-0.2-0.9-0.6-1.1
			c-0.6-0.3-1.3-0.1-1.6,0.5c-0.3,0.6-0.1,1.4,0.4,1.7C36.7,15.5,37.5,15.3,37.9,14.7z M45.2,14.2c0.1-0.8-0.3-1.3-0.9-1.4
			c-0.6-0.1-1.2,0.2-1.4,0.8c-0.2,0.7,0.1,1.3,0.6,1.5c0.6,0.2,1.3,0,1.6-0.5c-0.2-0.1-0.3-0.2-0.5-0.2c-0.2,0.3-0.5,0.4-0.8,0.2
			c-0.1-0.1-0.2-0.2-0.4-0.4c0,0,0-0.1,0.1-0.1C44.1,14.2,44.6,14.2,45.2,14.2z M27.5,15.2c0-0.2,0-0.3,0-0.4c0-0.3,0-0.6,0-0.9
			c0-0.3,0.3-0.6,0.6-0.5c0.4,0,0.4,0.3,0.4,0.5c0,0.1,0,0.3,0,0.4c0,0.3,0,0.6,0,0.9c0.2,0,0.4,0,0.6,0c0-0.6,0-1.2,0-1.7
			c0-0.4-0.3-0.5-0.6-0.6c-0.4-0.1-0.7,0.1-1,0.4c0-0.1-0.1-0.2-0.1-0.3c-0.2,0-0.4,0-0.6,0c0,0.8,0,1.5,0,2.3
			C27.1,15.2,27.2,15.2,27.5,15.2z M48.1,15.2c0-0.6,0-1.1,0-1.6c0-0.5-0.3-0.7-0.8-0.7c-0.3,0-0.5,0.2-0.8,0.3c0,0-0.1,0-0.1,0
			c0-0.1,0-0.2-0.1-0.3c-0.2,0-0.3,0-0.4,0c-0.1,0-0.2,0.1-0.2,0.2c0,0.7,0,1.4,0,2.1c0.2,0,0.4,0,0.7,0c0-0.4,0-0.8,0-1.1
			c0-0.4,0.2-0.7,0.6-0.7c0.3,0,0.4,0.2,0.4,0.7c0,0.4,0,0.8,0,1.2C47.7,15.2,47.9,15.2,48.1,15.2z M23.2,6.7c0,1.2,0,2.4,0,3.6
			c0.2,0,0.4,0,0.6,0c0-0.1,0-0.3,0-0.4c0-0.9,0-1.8,0-2.8c0-0.5,0-0.5-0.5-0.5C23.3,6.7,23.3,6.7,23.2,6.7z M49.5,15.2
			c0-0.5,0-0.9,0-1.4c0-0.2,0-0.4,0.3-0.4c0-0.2,0-0.3,0-0.5c-0.6-0.1-0.2-0.6-0.4-0.8c-0.2,0-0.3,0-0.5,0c-0.2,0.2,0.2,0.7-0.4,0.8
			c0,0.2,0,0.3,0,0.4c0,0,0.1,0,0.1,0c0.1,0.1,0.2,0.2,0.2,0.4c0,0.4,0,0.8,0,1.1c0,0.3,0.1,0.4,0.4,0.4
			C49.3,15.2,49.3,15.2,49.5,15.2z M36.5,10.3c0-1.2,0-2.4,0-3.6c-0.2,0-0.4,0-0.6,0c0,1.2,0,2.4,0,3.6
			C36.1,10.3,36.3,10.3,36.5,10.3z M34.1,10.3c0-1.2,0-2.4,0-3.7c-0.2,0.2-0.6-0.2-0.6,0.3c0,1,0,2,0,3.1c0,0.2,0.1,0.3,0.3,0.3
			C33.9,10.3,34,10.3,34.1,10.3z M12.1,10.5c1.1,0,2.1,0,3,0c0,0,0-0.1,0.1-0.1c-0.3-0.2-0.5-0.5-0.8-0.6c-0.5-0.1-1,0-1.5,0
			c-0.1,0-0.2,0.1-0.3,0.1C12.4,10.1,12.3,10.3,12.1,10.5z"/>
		<path class="st1" d="M17.1,12.8c-0.3,2.1-2.5,4-4.8,4.2c-2.6,0.2-5.1-1.3-5.9-3.8C5.6,10.8,6.6,8,8.8,6.7c2.2-1.3,4.9-0.9,6.2,0.4
			c-0.1,0.2-0.3,0.3-0.4,0.5c-1-0.7-2-1-3.2-1c-2.4,0.1-4.5,2.2-4.6,4.6c-0.1,2.5,1.5,4.6,4,5c2.2,0.4,4.5-0.8,5.4-3
			C16.5,12.7,16.5,12.7,17.1,12.8z"/>
		<path class="st1" d="M15.6,12.8c-0.4,1.5-2,2.7-3.8,2.8c-1.8,0-3.5-1.2-4-2.9C7.3,10.9,8,9,9.5,8C11,7.1,13,7.2,14.1,8.2
			c-0.1,0.2-0.3,0.3-0.5,0.5C12.8,8.1,11.9,8,11,8.2C9.4,8.5,8.3,10,8.3,11.6c0.1,1.6,1.3,3,2.9,3.2c1.4,0.2,2.6-0.4,3.3-1.6
			C14.8,12.8,15.1,12.7,15.6,12.8z"/>
		<path class="st1" d="M23.2,15.2c-0.2,0-0.4,0-0.6,0c-0.1-0.8-0.2-1.7-0.3-2.6c-0.3,0.8-0.5,1.5-0.7,2.3c-0.1,0.2-0.1,0.4-0.3,0.3
			c-0.3,0-0.2-0.2-0.3-0.3c-0.2-0.7-0.5-1.4-0.7-2.3c-0.1,0.6-0.1,1.1-0.2,1.6c0,0.2-0.1,0.4-0.1,0.6c0,0.4-0.1,0.5-0.5,0.4
			c-0.1,0-0.1,0-0.2,0c0.1-0.8,0.2-1.5,0.3-2.3c0-0.3,0.1-0.5,0.1-0.8c0-0.2,0-0.4,0.3-0.3c0.2,0,0.5-0.1,0.6,0.3
			c0.2,0.7,0.4,1.4,0.7,2.1c0.2-0.7,0.5-1.4,0.7-2.1c0.1-0.4,0.4-0.2,0.6-0.3c0.3,0,0.3,0.2,0.3,0.3c0.1,0.9,0.3,1.9,0.4,2.8
			C23.3,15,23.2,15.1,23.2,15.2z"/>
		<path class="st1" d="M21.9,9.1c-0.3,0-0.6,0-0.9,0c0-0.2,0-0.3,0-0.5c0.5,0,1,0,1.5,0c0,0,0.1,0.2,0.1,0.3
			c-0.1,0.9-0.6,1.5-1.4,1.6c-0.9,0.1-1.7-0.4-1.9-1.2C19,8.3,19.3,7.4,20.1,7c0.8-0.4,1.7-0.2,2.3,0.5c-0.2,0.1-0.3,0.2-0.4,0.3
			c-0.5-0.5-1.1-0.5-1.6-0.2c-0.4,0.3-0.6,1-0.4,1.5c0.2,0.5,0.7,0.7,1.2,0.6C21.6,9.7,21.8,9.5,21.9,9.1z"/>
		<path class="st1" d="M37.9,10.3c-0.3,0-0.4,0-0.7,0c0-0.7,0-1.5,0-2.2c0.3,0,0.6-0.2,0.7,0.2c0.7-0.5,1-0.5,1.4,0
			C39.6,8.2,39.8,8,40,8c0.5-0.1,0.9,0.2,0.9,0.6c0,0.6,0,1.1,0,1.7c-0.2,0-0.4,0-0.7,0c0-0.5,0-0.9,0-1.4c0-0.2-0.1-0.4-0.3-0.4
			c-0.2,0-0.4,0.1-0.5,0.3c0,0.2-0.1,0.3-0.1,0.5c0,0.3,0,0.6,0,1c-0.2,0-0.4,0-0.7,0c0-0.2,0-0.5,0-0.7c0-0.2,0-0.4,0-0.6
			c0-0.2,0-0.5-0.4-0.5c-0.3,0-0.5,0.2-0.5,0.5C37.8,9.4,37.9,9.8,37.9,10.3z"/>
		<path class="st1" d="M39.2,15.2c-0.2,0-0.4,0-0.6,0c0-0.8,0-1.5,0-2.2c0.5-0.1,0.6-0.1,0.7,0.2c0.3-0.1,0.5-0.3,0.8-0.3
			c0.2,0,0.5,0.2,0.8,0.3c0.1-0.1,0.4-0.2,0.6-0.3c0.4-0.1,0.9,0.1,0.9,0.6c0,0.6,0,1.2,0,1.8c-0.2,0-0.4,0-0.7,0c0-0.5,0-0.9,0-1.4
			c0-0.4-0.3-0.5-0.5-0.4c-0.1,0.1-0.3,0.2-0.3,0.4c-0.1,0.3,0,0.6-0.1,0.9c0,0.2,0,0.3,0,0.5c-0.2,0-0.3,0-0.4,0
			c-0.2,0-0.3-0.1-0.3-0.3c0-0.4,0-0.7,0-1.1c0-0.2,0-0.5-0.4-0.5c-0.3,0-0.4,0.2-0.5,0.5c0,0.4,0,0.7,0,1.1
			C39.2,15,39.2,15.1,39.2,15.2z"/>
		<path class="st1" d="M46.2,8.3C46.3,7.9,46.6,8,46.8,8c0,0.9,0,1.7,0,2.6c0,0,0,0.1,0,0.1c-0.1,0.4-0.6,0.6-1.2,0.6
			c-0.6,0-0.9-0.2-1-0.7c0.3,0,0.5-0.1,0.8,0.1c0.3,0.3,0.8,0.1,0.8-0.3c0-0.1,0-0.3,0-0.5c-0.2,0.1-0.3,0.2-0.4,0.2
			c-0.2,0.1-0.4,0.1-0.6,0.1c-0.4,0-0.7-0.3-0.8-0.6c-0.2-0.5-0.2-1.1,0.2-1.5c0.3-0.3,0.6-0.4,1-0.2C45.9,8,46,8.2,46.2,8.3z
			 M45.1,9.2c0,0.4,0.2,0.7,0.6,0.7c0.4,0,0.6-0.3,0.6-0.7c0-0.4-0.2-0.7-0.6-0.7C45.3,8.5,45.1,8.7,45.1,9.2z"/>
		<path class="st1" d="M34.4,13.2c0-0.4,0.3-0.3,0.5-0.3c0.1,0,0.2,0.2,0.2,0.4c0,0.7,0,1.5,0,2.2c0,0.2-0.2,0.5-0.3,0.6
			c-0.5,0.3-1.1,0.3-1.6,0c-0.1-0.1-0.2-0.3-0.3-0.4c0.3,0,0.6-0.1,0.8,0.1c0.3,0.3,0.8,0,0.8-0.4c0-0.1,0-0.2,0-0.3
			c-0.3,0.1-0.5,0.2-0.8,0.2c-0.5,0-0.9-0.2-1-0.7c-0.1-0.3-0.1-0.7,0-1C32.9,12.8,33.7,12.6,34.4,13.2z M33.3,14.1
			c0,0.4,0.2,0.7,0.6,0.7c0.4,0,0.6-0.3,0.6-0.7c0-0.4-0.2-0.7-0.6-0.7C33.5,13.4,33.3,13.7,33.3,14.1z"/>
		<path class="st1" d="M28.3,10.2c-0.3,0.1-0.5,0.1-0.7,0.2c0-1.3,0-2.4,0-3.7c0.2,0,0.4,0,0.6,0c0,0.5,0,1,0,1.6
			c0.1-0.1,0.2-0.1,0.2-0.2c0.6-0.4,1.3-0.2,1.5,0.4c0.1,0.3,0.1,0.6,0,0.9C29.8,10.3,28.9,10.7,28.3,10.2z M29.3,9.2
			c0-0.4-0.2-0.7-0.6-0.7c-0.4,0-0.6,0.3-0.6,0.7c0,0.4,0.2,0.7,0.6,0.7C29.1,9.8,29.3,9.6,29.3,9.2z"/>
		<path class="st1" d="M32.8,10.4c-0.3-0.1-0.5-0.1-0.8-0.2c-0.3,0.3-0.7,0.3-1.2,0.1c-0.4-0.2-0.6-0.9-0.5-1.5
			C30.5,8.3,30.8,8,31.2,8c0.4-0.1,0.7,0.1,0.9,0.3C32.2,7.9,32.5,8,32.8,8C32.8,8.8,32.8,9.5,32.8,10.4z M31,9.2
			c0,0.4,0.2,0.7,0.6,0.7c0.4,0,0.6-0.3,0.6-0.7c0-0.4-0.2-0.7-0.6-0.7C31.2,8.5,31,8.7,31,9.2z"/>
		<path class="st1" d="M26.2,15.2c-0.5,0.1-0.5,0.1-0.6-0.2c-0.5,0.3-0.9,0.4-1.3,0.2c-0.5-0.4-0.5-0.9-0.5-1.4
			c0.1-0.5,0.4-0.8,0.8-0.9c0.4-0.1,0.7,0,0.9,0.3c0.1-0.4,0.4-0.3,0.7-0.3C26.2,13.7,26.2,14.4,26.2,15.2z M24.4,14.1
			c0,0.4,0.2,0.7,0.6,0.7c0.4,0,0.6-0.3,0.6-0.7c0-0.4-0.2-0.7-0.6-0.7C24.6,13.4,24.4,13.7,24.4,14.1z"/>
		<path class="st1" d="M31.5,13.2c0.1-0.5,0.4-0.3,0.6-0.3c0,0.8,0,1.5,0,2.3c-0.2,0-0.5,0.2-0.6-0.2c-0.4,0.4-0.8,0.4-1.3,0.2
			c-0.4-0.2-0.6-0.8-0.5-1.4c0.1-0.5,0.4-0.8,0.8-0.9C30.9,12.8,31.2,12.9,31.5,13.2z M31.5,14.1c0-0.4-0.2-0.7-0.6-0.7
			c-0.4,0-0.6,0.3-0.6,0.7c0,0.4,0.2,0.7,0.6,0.7C31.3,14.8,31.5,14.5,31.5,14.1z"/>
		<path class="st1" d="M43.2,10.1c-0.4,0.3-0.8,0.4-1.2,0.2c-0.4-0.2-0.6-0.6-0.6-1.1c0-0.7,0.3-1.2,0.9-1.3c0.3-0.1,0.5,0,0.9,0.3
			c0-0.4,0.3-0.3,0.5-0.3c0.1,0,0.2,0.2,0.2,0.4c0,0.5,0,1.1,0,1.6c0,0.1-0.1,0.3-0.2,0.3C43.5,10.3,43.3,10.4,43.2,10.1z M43.3,9.2
			c0-0.4-0.3-0.7-0.6-0.7c-0.4,0-0.6,0.3-0.6,0.7c0,0.4,0.2,0.7,0.6,0.7C43.1,9.8,43.3,9.6,43.3,9.2z"/>
		<path class="st1" d="M16.5,12c-1.9,0-3.8,0-5.6,0c0.2-0.5,0.5-0.7,1-0.7c1.1,0,2.2,0,3.4,0C16,11.3,16,11.3,16.5,12z"/>
		<path class="st1" d="M24.4,9.2c0-0.7,0.5-1.2,1.3-1.2c0.7,0,1.3,0.5,1.3,1.3c0,0.7-0.5,1.2-1.3,1.2C24.9,10.4,24.4,9.9,24.4,9.2z
			 M26.3,9.2c0-0.4-0.2-0.6-0.6-0.6c-0.4,0-0.6,0.2-0.6,0.6c0,0.4,0.2,0.7,0.6,0.6C26.1,9.8,26.3,9.5,26.3,9.2z"/>
		<path class="st1" d="M48.1,9.3c0.1,0.6,0.6,0.7,1.1,0.3c0.1,0.1,0.3,0.1,0.4,0.2c-0.1,0.5-0.9,0.7-1.5,0.5
			c-0.6-0.2-0.9-0.9-0.7-1.5c0.2-0.6,0.8-1,1.4-0.8c0.7,0.1,1,0.6,0.9,1.4C49.2,9.3,48.7,9.3,48.1,9.3z M48.1,8.9c0.4,0,0.7,0,1,0
			c0-0.3-0.2-0.4-0.5-0.4C48.4,8.5,48.1,8.6,48.1,8.9z"/>
		<path class="st1" d="M37.9,14.7c-0.4,0.6-1.2,0.7-1.7,0.4c-0.5-0.3-0.7-1.1-0.4-1.7c0.3-0.6,1-0.8,1.6-0.5
			c0.4,0.2,0.6,0.6,0.6,1.1c0,0.2-0.1,0.2-0.3,0.2c-0.5,0-0.9,0-1.4,0c0,0,0,0-0.1,0c0.1,0.4,0.5,0.6,0.8,0.4
			C37.5,14.4,37.7,14.6,37.9,14.7z M37.3,13.8c0-0.4-0.3-0.5-0.5-0.4c-0.3,0-0.5,0.1-0.5,0.4C36.7,13.8,37,13.8,37.3,13.8z"/>
		<path class="st1" d="M45.2,14.2c-0.6,0-1.1,0-1.7,0c0,0,0,0.1-0.1,0.1c0.1,0.1,0.2,0.3,0.4,0.4c0.3,0.1,0.6,0,0.8-0.2
			c0.2,0.1,0.3,0.2,0.5,0.2c-0.3,0.5-0.9,0.8-1.6,0.5c-0.6-0.2-0.8-0.9-0.6-1.5c0.2-0.6,0.8-0.9,1.4-0.8
			C44.9,13,45.3,13.5,45.2,14.2z M43.5,13.8c0.4,0,0.7,0,1,0c0-0.3-0.2-0.5-0.5-0.5C43.8,13.4,43.6,13.5,43.5,13.8z"/>
		<path class="st1" d="M27.5,15.2c-0.2,0-0.4,0-0.6,0c0-0.8,0-1.5,0-2.3c0.2,0,0.4,0,0.6,0c0,0.1,0.1,0.2,0.1,0.3
			c0.3-0.3,0.6-0.4,1-0.4c0.3,0.1,0.6,0.3,0.6,0.6c0,0.6,0,1.1,0,1.7c-0.2,0-0.4,0-0.6,0c0-0.3,0-0.6,0-0.9c0-0.1,0-0.3,0-0.4
			c0-0.3-0.1-0.5-0.4-0.5c-0.3,0-0.6,0.2-0.6,0.5c0,0.3,0,0.6,0,0.9C27.5,14.9,27.5,15,27.5,15.2z"/>
		<path class="st1" d="M48.1,15.2c-0.2,0-0.4,0-0.6,0c0-0.4,0-0.8,0-1.2c0-0.5-0.1-0.7-0.4-0.7c-0.3,0-0.6,0.3-0.6,0.7
			c0,0.4,0,0.7,0,1.1c-0.2,0-0.4,0-0.7,0c0-0.7,0-1.4,0-2.1c0-0.1,0.1-0.1,0.2-0.2c0.1,0,0.3,0,0.4,0c0,0.1,0,0.2,0.1,0.3
			c0,0,0.1,0,0.1,0c0.3-0.1,0.5-0.3,0.8-0.3c0.5,0,0.8,0.2,0.8,0.7C48.1,14.1,48.1,14.6,48.1,15.2z"/>
		<path class="st1" d="M23.2,6.7c0.1,0,0.1,0,0.2,0c0.5,0,0.5,0,0.5,0.5c0,0.9,0,1.8,0,2.8c0,0.1,0,0.2,0,0.4c-0.2,0-0.4,0-0.6,0
			C23.2,9.1,23.2,7.9,23.2,6.7z"/>
		<path class="st1" d="M49.5,15.2c-0.1,0-0.2,0-0.3,0c-0.3,0-0.4-0.1-0.4-0.4c0-0.4,0-0.8,0-1.1c0-0.1-0.1-0.2-0.2-0.4
			c0,0-0.1,0-0.1,0c0-0.1,0-0.3,0-0.4c0.5-0.1,0.2-0.5,0.4-0.8c0.2,0,0.3,0,0.5,0c0.2,0.2-0.2,0.7,0.4,0.8c0,0.1,0,0.3,0,0.5
			c-0.3,0-0.3,0.2-0.3,0.4C49.5,14.3,49.5,14.7,49.5,15.2z"/>
		<path class="st1" d="M36.5,10.3c-0.2,0-0.4,0-0.6,0c0-1.2,0-2.4,0-3.6c0.2,0,0.4,0,0.6,0C36.5,7.9,36.5,9.1,36.5,10.3z"/>
		<path class="st1" d="M34.1,10.3c-0.1,0-0.2,0-0.3,0c-0.2,0-0.3,0-0.3-0.3c0-1,0-2,0-3.1c0-0.5,0.4-0.2,0.6-0.3
			C34.1,7.9,34.1,9.1,34.1,10.3z"/>
		<path class="st1" d="M12.1,10.5c0.2-0.2,0.3-0.4,0.5-0.5c0.1-0.1,0.2-0.1,0.3-0.1c0.5,0,1-0.1,1.5,0c0.3,0.1,0.5,0.4,0.8,0.6
			c0,0,0,0.1-0.1,0.1C14.1,10.5,13.1,10.5,12.1,10.5z"/>
		<path class="st0" d="M45.1,9.2c0-0.4,0.2-0.7,0.6-0.7c0.4,0,0.6,0.3,0.6,0.7c0,0.4-0.2,0.6-0.6,0.7C45.3,9.8,45.1,9.6,45.1,9.2z"
			/>
		<path class="st0" d="M33.3,14.1c0-0.4,0.2-0.7,0.6-0.7c0.4,0,0.6,0.3,0.6,0.7c0,0.4-0.2,0.7-0.6,0.7
			C33.6,14.8,33.3,14.5,33.3,14.1z"/>
		<path class="st0" d="M29.3,9.2c0,0.4-0.2,0.7-0.6,0.7c-0.4,0-0.6-0.3-0.6-0.7c0-0.4,0.2-0.7,0.6-0.7C29.1,8.5,29.3,8.7,29.3,9.2z"
			/>
		<path class="st0" d="M31,9.2c0-0.4,0.2-0.7,0.6-0.7c0.4,0,0.6,0.3,0.6,0.7c0,0.4-0.2,0.7-0.6,0.7C31.2,9.8,31,9.6,31,9.2z"/>
		<path class="st0" d="M24.4,14.1c0-0.4,0.2-0.7,0.6-0.7c0.4,0,0.6,0.3,0.6,0.7c0,0.4-0.2,0.7-0.6,0.7
			C24.6,14.7,24.4,14.5,24.4,14.1z"/>
		<path class="st0" d="M31.5,14.1c0,0.4-0.2,0.7-0.6,0.7c-0.4,0-0.6-0.3-0.6-0.7c0-0.4,0.2-0.7,0.6-0.7
			C31.3,13.4,31.5,13.7,31.5,14.1z"/>
		<path class="st0" d="M43.3,9.2c0,0.4-0.2,0.7-0.6,0.7c-0.4,0-0.6-0.3-0.6-0.7c0-0.4,0.2-0.7,0.6-0.7C43.1,8.5,43.3,8.7,43.3,9.2z"
			/>
		<path class="st0" d="M26.3,9.2c0,0.4-0.2,0.6-0.6,0.6c-0.4,0-0.6-0.3-0.6-0.6c0-0.4,0.2-0.6,0.6-0.6C26,8.5,26.3,8.8,26.3,9.2z"/>
		<path class="st0" d="M48.1,8.9c0.1-0.3,0.3-0.4,0.5-0.4c0.3,0,0.4,0.1,0.5,0.4C48.8,8.9,48.5,8.9,48.1,8.9z"/>
		<path class="st0" d="M37.3,13.8c-0.3,0-0.7,0-1,0c0-0.3,0.2-0.4,0.5-0.4C37.1,13.4,37.3,13.5,37.3,13.8z"/>
		<path class="st0" d="M43.5,13.8c0.1-0.3,0.3-0.5,0.5-0.5c0.3,0,0.5,0.1,0.5,0.5C44.2,13.8,43.9,13.8,43.5,13.8z"/>
	</g>
</g>
</svg>
