<?xml version="1.0" encoding="utf-8"?>
<!-- Generator: Adobe Illustrator 21.0.1, SVG Export Plug-In . SVG Version: 6.00 Build 0)  -->
<svg version="1.1" id="Layer_1" xmlns="http://www.w3.org/2000/svg" xmlns:xlink="http://www.w3.org/1999/xlink" x="0px" y="0px"
	 viewBox="0 0 79 23" style="enable-background:new 0 0 79 23;" xml:space="preserve">
<style type="text/css">
	.st0{fill:#cdcdcd;}
</style>
<g>
	<title>Forbes</title>
	<desc>Created with Sketch.</desc>
	<path class="st0" d="M0.2,4.4h2.7v6.1h5.8V4.4h2.7v14.9H8.7v-6.2H2.9v6.2H0.2V4.4z M20.1,14.4c0,1.2-1,2.3-2.3,2.3
		c-1.2,0-2.3-1-2.3-2.3V8H13v6.4c0,2.7,2.2,4.8,4.9,4.8c2.7,0,4.8-2.2,4.8-4.8V8h-2.6V14.4 M29.9,8.1c-1.3,0-2.2,0.4-3,1.2V4.4h-2.6
		v9.1c0,3.4,2.5,5.8,5.2,5.8c3.1,0,5.8-2.4,5.8-5.6C35.3,10.5,32.8,8.1,29.9,8.1L29.9,8.1z M29.9,16.9c-1.8,0-3.1-1.5-3.1-3.2
		c0-1.7,1.3-3.2,3.1-3.2c1.5,0,2.8,1.5,2.8,3.2C32.8,15.4,31.4,16.9,29.9,16.9z M39.6,8.7c0-1.3,0.9-1.7,1.8-1.7
		c0.8,0,1.8,0.6,2.4,1.3l1.7-2c-0.8-1.1-2.6-1.9-4-1.9c-2.8,0-4.8,1.6-4.8,4.3c0,5,6.2,3.4,6.2,6.3c0,0.9-0.8,1.6-1.8,1.6
		c-1.5,0-2-0.7-2.7-1.5L36.5,17c1.2,1.5,2.7,2.2,4.5,2.2c2.7,0,4.8-1.7,4.8-4.2C45.8,9.4,39.6,11.2,39.6,8.7 M52.7,7.9
		c-2.8,0-5.2,2.3-5.2,5.8v9.2H50v-5c0.9,0.8,1.8,1.2,3,1.2c2.9,0,5.4-2.4,5.4-5.6C58.5,10.3,55.8,7.9,52.7,7.9L52.7,7.9z M53.1,16.7
		c-1.8,0-3.1-1.5-3.1-3.2c0-1.7,1.3-3.2,3.1-3.2c1.5,0,2.8,1.5,2.8,3.2C56,15.2,54.6,16.7,53.1,16.7z M77.6,16.9c-1.5,0-2-0.7-2-1.7
		v-4.5H78V8.4h-2.4v-3L73,6.6v9.2c0,2.3,1.6,3.5,3.8,3.5c0.3,0,0.8,0,1-0.1l0.6-2.4C78.2,16.8,77.9,16.9,77.6,16.9"/>
	<path class="st0" d="M70.7,10.8c-0.5-0.9-1.2-1.5-2.1-2.1C68,8.4,67.3,8.1,66.6,8V5.3c0.8-0.3,1.2-1,1.2-1.9c0-1.1-0.9-2.1-2.1-2.1
		c-1.1,0-2.1,0.9-2.1,2.1c0,0.8,0.4,1.6,1.2,1.9V8c-0.6,0.1-1.2,0.3-1.8,0.6C61.9,7.7,58,4.8,55.7,3c0.1-0.2,0.1-0.4,0.1-0.6
		c0-1.3-1-2.3-2.3-2.3c-1.3,0-2.3,1-2.3,2.3c0,1.3,1,2.3,2.3,2.3c0.4,0,0.8-0.1,1.2-0.3l0.5,0.4l6.6,4.7c-0.3,0.3-0.7,0.7-0.9,1.1
		c-0.5,0.8-0.8,1.7-0.8,2.7v0.2c0,0.7,0.1,1.4,0.4,2c0.2,0.5,0.5,1,0.9,1.5L59,19.2c-0.6-0.2-1.4-0.1-1.9,0.4
		c-0.3,0.3-0.5,0.8-0.5,1.3c0,0.5,0.2,0.9,0.5,1.3c0.3,0.3,0.8,0.5,1.3,0.5c0.5,0,0.9-0.2,1.3-0.5c0.3-0.3,0.5-0.8,0.5-1.3
		c0-0.2,0-0.4-0.1-0.5l2.3-2.3c0.3,0.2,0.6,0.4,1,0.5c0.7,0.3,1.5,0.5,2.3,0.5h0.2c0.9,0,1.8-0.2,2.7-0.7c0.9-0.5,1.6-1.1,2.1-2
		c0.5-0.8,0.8-1.8,0.8-2.8v-0.1C71.4,12.6,71.2,11.7,70.7,10.8L70.7,10.8z M68,15.6c-0.6,0.7-1.3,1.1-2.1,1.1h-0.1
		c-0.5,0-0.9-0.1-1.3-0.4c-0.5-0.3-0.9-0.6-1.2-1.1c-0.3-0.4-0.5-0.9-0.5-1.5v-0.2c0-0.5,0.1-1,0.3-1.4c0.3-0.5,0.6-0.9,1.1-1.2
		c0.5-0.3,1-0.5,1.5-0.5h0.1c0.5,0,1,0.1,1.4,0.3c0.5,0.2,0.8,0.6,1.1,1c0.3,0.4,0.4,0.9,0.5,1.4c0,0.1,0,0.2,0,0.3
		C68.8,14.3,68.5,15,68,15.6L68,15.6z"/>
</g>
</svg>
