<?xml version="1.0" encoding="utf-8"?>
<!-- Generator: Adobe Illustrator 21.0.1, SVG Export Plug-In . SVG Version: 6.00 Build 0)  -->
<svg version="1.1" id="Layer_1" xmlns="http://www.w3.org/2000/svg" xmlns:xlink="http://www.w3.org/1999/xlink" x="0px" y="0px"
	 viewBox="0 0 79 23" style="enable-background:new 0 0 79 23;" xml:space="preserve">
<style type="text/css">
	.st0{fill:#CDCDCD;}
	.st1{fill:#CDCDCD;stroke:#000000;stroke-width:3;stroke-miterlimit:10;}
	.st2{fill:#CDCDCD;stroke:#CDCDCD;stroke-width:1.35;stroke-linejoin:round;stroke-miterlimit:10;}
</style>
<g>
	<g>
		<path class="st0" d="M15.9,18.9c0.1,0.2,0.3,0.2,0.4,0.2c1.9,0,4.4,0,4.7,0c0,0,0,0,0,0v-0.2c0,0,0,0,0,0
			c-0.7-0.1-1.2-0.5-1.4-1.2c-0.1-0.3-0.4-1.1-0.7-1.9c-0.3-0.8-0.6-1.7-0.7-1.9c-0.2-0.7-0.1-1.1,0.2-1.9c0.4-1.1,0.9-2.5,0.9-2.7
			c0,0,0,0,0,0l-0.2-0.5c0,0,0,0-0.1,0l-1.3,3.7c0,0,0,0,0,0c-0.3-0.7-2.1-6.1-2.5-7.1c-0.4-1-0.9-1.3-1.7-1.3c0,0-0.4,0-0.9,0
			c-0.6,0-0.8,0-1.1,0c-0.1,0-0.6,0-0.8,0.2L15.9,18.9z"/>
		<path class="st0" d="M24.1,18.9c0.1,0.2,0.3,0.2,0.4,0.2c1.9,0,4.4,0,4.7,0c0,0,0,0,0,0v-0.2c0,0,0,0,0,0
			c-0.7-0.1-1.2-0.5-1.4-1.2c-0.1-0.3-1.2-3.6-1.3-3.9c-0.2-0.7-0.5-1.3-0.5-1.4c-0.3-0.7-2.1-6.1-2.5-7.1c-0.4-1-0.9-1.3-1.7-1.3
			c0,0-0.4,0-0.9,0c-0.6,0-0.8,0-1.1,0c-0.1,0-0.6,0-0.8,0.2L24.1,18.9z"/>
		<path class="st0" d="M38.9,18.8V19c0,0,0,0,0,0l6.7,0c0,0,0,0,0,0v-0.2c0,0,0,0,0,0c-0.7-0.1-1.2-0.5-1.4-1.2
			c-0.1-0.3-0.4-1.1-0.7-1.9c-0.3-0.9-3.2-9.3-3.6-10.4c-0.4-1-0.9-1.3-1.7-1.3h-1.9H36c-0.4,0-0.5,0.2-0.5,0.2
			c0,0,3.9,11.3,4.4,12.9C40.4,18.4,39.2,18.8,38.9,18.8C38.9,18.8,38.9,18.8,38.9,18.8z"/>
		<path class="st1" d="M11.5,9.2"/>
		<g>
			<path class="st0" d="M31,19.1h3.1c0,0,0,0,0,0v-0.2c0,0,0,0,0,0c-0.4,0-0.7-0.2-0.9-0.5c-0.1-0.2-0.3-0.6-0.2-1.1
				c0.3-0.8,1-3.1,1.1-3.3c0,0,0,0,0,0h3.5c0,0,0,0,0,0l-0.1-0.3c0,0,0,0,0,0h-3.7c0,0,0,0,0,0c-0.1,0.2-0.8,2.4-0.9,2.7
				c-0.2,0.6-0.5,1.4-0.6,1.8c-0.3,0.6-0.9,0.8-1.3,0.9c0,0,0,0,0,0L31,19.1C30.9,19.1,31,19.1,31,19.1z"/>
		</g>
		<path class="st0" d="M9.8,13.1l1.4-3.9c0,0,0,0,0,0L11,8.6c0,0,0,0-0.1,0L9.4,13c0,0,0,0,0,0L9.8,13.1C9.8,13.1,9.8,13.1,9.8,13.1
			z"/>
		<g>
			<path class="st0" d="M1.6,18.8l0,0.2c0,0,0,0,0,0h3.6h1.5c0.1,0,0.1-0.1,0.1-0.1V4.2c0-0.1-0.1-0.3-0.4-0.3H1.7c0,0,0,0,0,0v0.2
				c0,0,0,0,0,0C2.5,4.4,3,5,3,5.9v11.2C3,18,2.5,18.6,1.6,18.8C1.6,18.8,1.6,18.8,1.6,18.8z"/>
		</g>
	</g>
	<g>
		<path class="st0" d="M52.1,4C52.1,4,52.2,3.9,52.1,4l0.3-0.1c0,0,0.1,0,0.1,0.1v2.8c0,0,0,0.1-0.1,0.1h-0.2c0,0-0.1,0-0.1-0.1V4z"
			/>
		<path class="st0" d="M53.3,4C53.3,3.9,53.4,3.9,53.3,4l0.2-0.1l1.9,2.4c0,0,0,0,0,0V4c0,0,0-0.1,0.1-0.1h0.1c0,0,0.1,0,0.1,0.1
			v2.9c0,0,0,0.1-0.1,0.1h-0.1l-2-2.5h0v2.3c0,0,0,0.1-0.1,0.1h-0.1c0,0-0.1,0-0.1-0.1L53.3,4L53.3,4z"/>
		<path class="st0" d="M56.6,4C56.6,4,56.7,3.9,56.6,4l1.8-0.1c0,0,0.1,0,0.1,0.1v0.1c0,0,0,0.1-0.1,0.1H57v1.2h1.2
			c0,0,0.1,0,0.1,0.1v0.1c0,0,0,0.1-0.1,0.1H57v1.2c0,0,0,0.1-0.1,0.1h-0.2c0,0-0.1,0-0.1-0.1L56.6,4L56.6,4z"/>
		<path class="st0" d="M59,4C59,4,59,3.9,59,4l0.2-0.1c0,0,0.1,0,0.1,0.1v2.6h1.2c0,0,0.1,0,0.1,0.1v0.1c0,0,0,0.1-0.1,0.1h-1.5
			c0,0-0.1,0-0.1-0.1L59,4L59,4z"/>
		<path class="st0" d="M61,4C61,4,61,3.9,61,4l0.2-0.1c0,0,0.1,0,0.1,0.1v1.8c0,0.5,0.3,0.9,0.8,0.9c0.5,0,0.8-0.4,0.8-0.9V4
			c0,0,0-0.1,0.1-0.1h0.2c0,0,0.1,0,0.1,0.1v1.8c0,0.7-0.5,1.1-1.1,1.1C61.4,7,61,6.5,61,5.8L61,4L61,4z"/>
		<path class="st0" d="M64.1,4C64.1,4,64.1,3.9,64.1,4l1.8-0.1c0,0,0.1,0,0.1,0.1v0.1c0,0,0,0.1-0.1,0.1h-1.4v1h1.2
			c0,0,0.1,0,0.1,0.1v0.1c0,0,0,0.1-0.1,0.1h-1.2v1.1h1.4c0,0,0.1,0,0.1,0.1v0.1c0,0,0,0.1-0.1,0.1h-1.7c0,0-0.1,0-0.1-0.1V4z"/>
		<path class="st0" d="M66.5,4C66.5,3.9,66.5,3.9,66.5,4l0.2-0.1l1.9,2.4c0,0,0,0,0,0V4c0,0,0-0.1,0.1-0.1h0.1c0,0,0.1,0,0.1,0.1
			v2.9c0,0,0,0.1-0.1,0.1h-0.1l-2-2.5h0v2.3c0,0,0,0.1-0.1,0.1h-0.1c0,0-0.1,0-0.1-0.1L66.5,4L66.5,4z"/>
		<path class="st0" d="M71.1,3.9c0.4,0,0.7,0.1,1,0.4c0,0,0,0.1,0,0.1l-0.1,0.1c0,0-0.1,0-0.1,0c-0.2-0.2-0.5-0.3-0.8-0.3
			c-0.7,0-1.2,0.6-1.2,1.2c0,0.7,0.5,1.2,1.2,1.2c0.4,0,0.6-0.1,0.8-0.3c0,0,0.1,0,0.1,0l0.1,0.1c0,0,0,0.1,0,0.1
			c-0.3,0.3-0.7,0.4-1,0.4c-0.9,0-1.5-0.7-1.5-1.5S70.3,3.9,71.1,3.9z"/>
		<path class="st0" d="M72.8,4C72.8,4,72.8,3.9,72.8,4l1.8-0.1c0,0,0.1,0,0.1,0.1v0.1c0,0,0,0.1-0.1,0.1h-1.4v1h1.2
			c0,0,0.1,0,0.1,0.1v0.1c0,0,0,0.1-0.1,0.1h-1.2v1.1h1.4c0,0,0.1,0,0.1,0.1v0.1c0,0,0,0.1-0.1,0.1h-1.7c0,0-0.1,0-0.1-0.1V4z"/>
		<path class="st0" d="M75.2,4C75.2,4,75.3,3.9,75.2,4l1.2-0.1c0.5,0,0.9,0.4,0.9,0.9c0,0.4-0.3,0.7-0.6,0.9l0.6,1.1
			c0,0.1,0,0.1-0.1,0.1H77c0,0-0.1,0-0.1,0l-0.6-1.1h-0.8v1.1c0,0,0,0.1-0.1,0.1h-0.2c0,0-0.1,0-0.1-0.1V4z M76.4,5.5
			c0.3,0,0.6-0.3,0.6-0.6c0-0.3-0.3-0.6-0.6-0.6h-0.8v1.2H76.4z"/>
		<path class="st0" d="M52.5,10C52.5,10,52.5,10,52.5,10l0.1-0.1c0,0,0.1,0,0.1,0l0.8,2.4c0,0,0,0,0,0l0.8-2.4c0,0,0,0,0.1,0h0.1
			c0,0,0.1,0,0.1,0.1l0.6,2.9c0,0.1,0,0.1-0.1,0.1h-0.2c0,0-0.1,0-0.1-0.1l-0.4-2.2c0,0,0,0,0,0L53.7,13c0,0,0,0-0.1,0h-0.1
			c0,0-0.1,0-0.1,0l-0.8-2.3c0,0,0,0,0,0l-0.4,2.2c0,0,0,0.1-0.1,0.1H52c-0.1,0-0.1,0-0.1-0.1L52.5,10z"/>
		<path class="st0" d="M55.6,12.9l1.3-2.9c0,0,0,0,0.1,0h0c0,0,0.1,0,0.1,0l1.3,2.9c0,0.1,0,0.1-0.1,0.1h-0.2c0,0-0.1,0-0.1,0
			l-0.3-0.7h-1.5L55.9,13c0,0,0,0-0.1,0h-0.2C55.6,13,55.5,12.9,55.6,12.9z M57.6,12c-0.2-0.5-0.4-0.9-0.6-1.4h0L56.3,12H57.6z"/>
		<path class="st0" d="M58.8,10.1C58.8,10,58.9,10,58.8,10.1L60,10c0.5,0,0.9,0.4,0.9,0.9c0,0.4-0.3,0.7-0.6,0.9l0.6,1.1
			c0,0.1,0,0.1-0.1,0.1h-0.2c0,0-0.1,0-0.1,0L60,11.8h-0.8v1.1c0,0,0,0.1-0.1,0.1h-0.2c0,0-0.1,0-0.1-0.1V10.1z M60,11.5
			c0.3,0,0.6-0.3,0.6-0.6c0-0.3-0.3-0.6-0.6-0.6h-0.8v1.2L60,11.5L60,11.5z"/>
		<path class="st0" d="M61.6,10.1c0-0.1,0-0.1,0.1-0.1h0.1c0.1,0,0.1,0,0.1,0.1v1.2l1.3-1.3c0,0,0.1,0,0.1,0h0.2
			c0.1,0,0.1,0.1,0.1,0.1l-1.4,1.3l1.4,1.5c0,0,0,0.1-0.1,0.1h-0.2c0,0-0.1,0-0.1,0L62,11.5v1.4c0,0.1,0,0.1-0.1,0.1h-0.1
			c-0.1,0-0.1,0-0.1-0.1L61.6,10.1L61.6,10.1z"/>
		<path class="st0" d="M64.3,10.1C64.3,10,64.3,10,64.3,10.1L66,10c0,0,0.1,0,0.1,0.1v0.1c0,0,0,0.1-0.1,0.1h-1.4v1h1.2
			c0,0,0.1,0,0.1,0.1v0.1c0,0,0,0.1-0.1,0.1h-1.2v1.1H66c0,0,0.1,0,0.1,0.1v0.1c0,0,0,0.1-0.1,0.1h-1.7c0,0-0.1,0-0.1-0.1V10.1z"/>
		<path class="st0" d="M67.3,10.3h-0.7c0,0-0.1,0-0.1-0.1v-0.1c0,0,0-0.1,0.1-0.1h1.8c0,0,0.1,0,0.1,0.1v0.1c0,0,0,0.1-0.1,0.1h-0.7
			v2.6c0,0,0,0.1-0.1,0.1h-0.2c0,0-0.1,0-0.1-0.1L67.3,10.3L67.3,10.3z"/>
		<path class="st0" d="M68.9,10.1C68.9,10,69,10,68.9,10.1l0.3-0.1c0,0,0.1,0,0.1,0.1v2.8c0,0,0,0.1-0.1,0.1H69c0,0-0.1,0-0.1-0.1
			V10.1z"/>
		<path class="st0" d="M70.1,10C70.1,10,70.2,10,70.1,10l0.2-0.1l1.9,2.4c0,0,0,0,0,0v-2.3c0,0,0-0.1,0.1-0.1h0.1c0,0,0.1,0,0.1,0.1
			V13c0,0,0,0.1-0.1,0.1h-0.1l-2-2.5h0v2.3c0,0,0,0.1-0.1,0.1h-0.1c0,0-0.1,0-0.1-0.1L70.1,10L70.1,10z"/>
		<path class="st0" d="M74.8,10c0.4,0,0.7,0.1,1,0.4c0,0,0,0.1,0,0.1c0,0-0.1,0.1-0.1,0.1c0,0-0.1,0-0.1,0c-0.2-0.2-0.5-0.3-0.8-0.3
			c-0.7,0-1.2,0.6-1.2,1.2c0,0.7,0.5,1.2,1.2,1.2c0.5,0,0.8-0.2,0.8-0.2v-0.6h-0.5c0,0-0.1,0-0.1-0.1v-0.2c0,0,0-0.1,0.1-0.1h0.7
			c0,0,0.1,0,0.1,0.1v1c0,0,0,0.1,0,0.1c0,0-0.4,0.3-1.1,0.3c-0.9,0-1.5-0.7-1.5-1.5C73.2,10.6,73.9,10,74.8,10z"/>
		<path class="st0" d="M51.7,19l1.3-2.9c0,0,0,0,0.1,0h0c0,0,0.1,0,0.1,0l1.3,2.9c0,0.1,0,0.1-0.1,0.1h-0.2c0,0-0.1,0-0.1,0
			l-0.3-0.7h-1.5L52.1,19c0,0,0,0-0.1,0h-0.2C51.7,19.1,51.7,19,51.7,19z M53.8,18.1c-0.2-0.5-0.4-0.9-0.6-1.4h0l-0.6,1.4H53.8z"/>
		<path class="st0" d="M56.2,16c0.4,0,0.7,0.1,1,0.4c0,0,0,0.1,0,0.1c0,0-0.1,0.1-0.1,0.1c0,0-0.1,0-0.1,0c-0.2-0.2-0.5-0.3-0.8-0.3
			c-0.7,0-1.2,0.6-1.2,1.2c0,0.7,0.5,1.2,1.2,1.2c0.5,0,0.8-0.2,0.8-0.2V18h-0.5c0,0-0.1,0-0.1-0.1v-0.2c0,0,0-0.1,0.1-0.1h0.7
			c0,0,0.1,0,0.1,0.1v1c0,0,0,0.1,0,0.1c0,0-0.4,0.3-1.1,0.3c-0.9,0-1.5-0.7-1.5-1.5C54.7,16.7,55.4,16,56.2,16z"/>
		<path class="st0" d="M58,16.2C58,16.1,58.1,16.1,58,16.2l1.8-0.1c0,0,0.1,0,0.1,0.1v0.1c0,0,0,0.1-0.1,0.1h-1.4v1h1.2
			c0,0,0.1,0,0.1,0.1v0.1c0,0,0,0.1-0.1,0.1h-1.2v1.1h1.4c0,0,0.1,0,0.1,0.1V19c0,0,0,0.1-0.1,0.1h-1.7c0,0-0.1,0-0.1-0.1V16.2z"/>
		<path class="st0" d="M60.5,16.1C60.5,16.1,60.5,16,60.5,16.1l0.2-0.1l1.9,2.4c0,0,0,0,0,0v-2.3c0,0,0-0.1,0.1-0.1h0.1
			c0,0,0.1,0,0.1,0.1V19c0,0,0,0.1-0.1,0.1h-0.1l-2-2.5h0V19c0,0,0,0.1-0.1,0.1h-0.1c0,0-0.1,0-0.1-0.1L60.5,16.1L60.5,16.1z"/>
		<path class="st0" d="M65.1,16c0.4,0,0.7,0.1,1,0.4c0,0,0,0.1,0,0.1l-0.1,0.1c0,0-0.1,0-0.1,0c-0.2-0.2-0.5-0.3-0.8-0.3
			c-0.7,0-1.2,0.6-1.2,1.2c0,0.7,0.5,1.2,1.2,1.2c0.4,0,0.6-0.1,0.8-0.3c0,0,0.1,0,0.1,0l0.1,0.1c0,0,0,0.1,0,0.1
			c-0.3,0.3-0.7,0.4-1,0.4c-0.9,0-1.5-0.7-1.5-1.5C63.6,16.7,64.3,16,65.1,16z"/>
		<path class="st0" d="M67.5,17.6l-1-1.4c0-0.1,0-0.1,0.1-0.1h0.2c0,0,0.1,0,0.1,0l0.9,1.2l0.9-1.2c0,0,0,0,0.1,0h0.2
			c0.1,0,0.1,0.1,0.1,0.1l-1,1.4V19c0,0,0,0.1-0.1,0.1h-0.2c0,0-0.1,0-0.1-0.1L67.5,17.6L67.5,17.6z"/>
	</g>
	<rect x="48.6" y="4" class="st2" width="0.2" height="15"/>
</g>
</svg>
