<?xml version="1.0" encoding="utf-8"?>
<!-- Generator: Adobe Illustrator 21.0.2, SVG Export Plug-In . SVG Version: 6.00 Build 0)  -->
<svg version="1.1" id="Layer_1" xmlns="http://www.w3.org/2000/svg" xmlns:xlink="http://www.w3.org/1999/xlink" x="0px" y="0px"
	 viewBox="0 0 79 23" style="enable-background:new 0 0 79 23;" xml:space="preserve">
<style type="text/css">
	.st0{fill:#FFFFFF;}
</style>
<g>
	<path class="st0" d="M6.8,9.3c0.7-1.1,1.5-1.6,2.8-1.6c1.9,0,3.2,1.5,3.2,3.5v6.1h-2.5v-5.7c0-1-0.6-1.7-1.6-1.7
		c-1.1,0-1.9,0.9-1.9,2.1v5.3H4.4V8h2.4C6.8,8,6.8,9.1,6.8,9.3z M62.5,9.3c0.7-1.1,1.5-1.6,2.8-1.6c1.9,0,3.2,1.5,3.2,3.5v6.1H66
		v-5.7c0-1-0.6-1.7-1.6-1.7c-1.1,0-1.9,0.9-1.9,2.1v5.3h-2.5V8h2.4C62.5,8,62.5,9.1,62.5,9.3z M19,12.6c0-2.8,1.9-4.9,4.7-4.9
		c2.8,0,4.4,2,4.4,4.9c0,0.2,0,0.4,0,0.7l-6.7,0c0.2,1.4,0.9,2.3,2.3,2.3c0.8,0,1.5-0.4,1.9-1.1h2.4c-0.3,1.7-1.8,3-4.2,3
		C20.6,17.5,19,15.4,19,12.6z M21.5,11.6h4.2c-0.1-1.2-0.8-2-2-2C22.4,9.6,21.6,10.5,21.5,11.6z M47.4,9.6l0.1-0.1
		c0.6-1.1,1.2-1.6,2.3-1.6c0.3,0,0.4,0,0.6,0.1v2.2h-0.1c-1.6-0.2-2.8,0.7-2.8,2.7v4.5h-2.5V8h2.4V9.6z M56.3,16.3
		c-0.4,0.6-1.1,1.2-2.6,1.2c-1.9,0-3.3-0.9-3.3-2.8c0-2.1,1.6-2.8,3.7-3c1.5-0.2,2.2-0.3,2.2-1.1c0-0.7-0.5-1.1-1.5-1.1
		c-1.2,0-1.7,0.4-1.7,1.3h-2.2c0.1-1.6,1.2-3.1,3.9-3.1c2.8,0,3.9,1.3,3.9,3.4v4.7c0,0.7,0.1,1.2,0.3,1.4h-2.5
		C56.5,17.1,56.3,16.6,56.3,16.3z M56.3,14v-1.4c-0.4,0.3-1,0.4-1.7,0.5c-1.3,0.3-1.8,0.6-1.8,1.5c0,0.9,0.5,1.2,1.4,1.2
		C55.6,15.8,56.3,14.9,56.3,14z M0.5,5.5v11.8H3V5.5H0.5z M17.2,14.5V9.6h1.6V8h-1.6V5.5h-2.4V8h-1.3v1.7h1.3v5.4
		c0,1.8,1.4,2.2,2.6,2.2c1,0,1.5,0,1.5,0v-1.8c0,0-0.4,0-0.7,0C17.6,15.5,17.2,15.2,17.2,14.5z M40.2,7.7c-1.2,0-2.1,0.5-2.6,1.3
		l0-3.5h-2.5v11.8h2.4l0-1c0.5,0.9,1.5,1.2,2.6,1.2c2.6,0,4.1-1.8,4.1-4.9C44.2,9.6,42.6,7.7,40.2,7.7z M39.7,15.5
		c-1.4,0-2.1-1.1-2.1-2.8c0-1.7,0.6-3,2.1-3c1.4,0,2,1.2,2,2.9C41.6,14.4,40.9,15.5,39.7,15.5z M31.4,9.6l0.1-0.1
		c0.6-1.1,1.2-1.6,2.3-1.6c0.3,0,0.4,0,0.6,0.1v2.2h-0.1c-1.6-0.2-2.8,0.7-2.8,2.7v4.5H29V8h2.4V9.6z M69.4,12.6
		c0,3.1,1.6,4.9,4.1,4.9c1.1,0,2.1-0.4,2.6-1.2l0,1h2.4V5.5H76L76,9c-0.5-0.8-1.5-1.3-2.7-1.3C71,7.7,69.4,9.6,69.4,12.6z
		 M71.9,12.6c0-1.7,0.6-2.9,2-2.9c1.6,0,2.2,1.3,2.2,3c0,1.7-0.7,2.9-2.2,2.9C72.7,15.6,71.9,14.4,71.9,12.6z"/>
</g>
</svg>
