<?xml version="1.0" encoding="utf-8"?>
<!-- Generator: Adobe Illustrator 21.0.2, SVG Export Plug-In . SVG Version: 6.00 Build 0)  -->
<svg version="1.1" id="Layer_1" xmlns="http://www.w3.org/2000/svg" xmlns:xlink="http://www.w3.org/1999/xlink" x="0px" y="0px"
	 viewBox="0 0 50 23" style="enable-background:new 0 0 50 23;" xml:space="preserve">
<style type="text/css">
	.st0{fill:#CDCDCD;}
</style>
<title>Forbes</title>
<desc>Created with Sketch.</desc>
<g>
	<path class="st0" d="M47.4,8.1C47.3,8,47.2,8,46.6,7.5c-0.5-0.4-1-1.2-1.1-1.5c-0.2-0.3-0.1-0.6-0.6-0.9c-0.4-0.4-0.8-0.5-1-0.7
		c-0.2-0.1-0.5-0.6-0.7-0.7c-0.2-0.1-0.3-0.2-0.3-0.3c0-0.2-0.1-1-0.2-1.1c-0.2-0.1-0.3-0.2-0.5-0.1c-0.2,0-0.4,0-0.4,0l-0.4,0.1
		l-0.3-0.2c0,0,0.1-0.5-0.1-0.6s-0.3-0.2-0.5-0.2c-0.2,0-0.4,0.1-0.4,0.1S40,1.5,39.8,1.6c-0.1,0.1-0.5,0.2-0.5,0.2s-0.8-0.2-1-0.2
		c-0.2,0-1.3,0-1.7,0c-0.4,0-0.3-0.3-0.8-0.3c-0.5,0-1.1-0.3-1.4-0.3c-0.3,0-0.8-0.1-1.1-0.1c-0.3,0-0.5,0-0.8,0.1
		c-0.3,0.1-0.8,0.3-1.6,0.3c-0.7,0-1.4,0-2.1-0.1C28.1,1.2,27.7,1,27.3,1c-0.3,0-0.4,0-0.7,0l-4.1,10.2l-2.1,5.3
		c0.3,0.3,0.6,0.6,0.8,0.7c0.4,0.3,0.9,0.8,1,1.3c0.2,0.5,0.2,0.4,0.2,1c0,0.6,0.1,1,0.5,1.3c0.4,0.3,0.7,0.5,1,0.7
		c0.6,0.5,0.4,0.2,1.6,0.3c0.2,0,0.9,0.1,1.1,0.1c0.3,0,1-0.1,1.3-0.1c0.3,0,0.8,0,0.8,0c0-0.1,0.5-0.6-0.5-1
		c-0.4-0.2-0.8-0.4-1.3-0.4c-0.2,0-0.1,0-0.4-0.2c-0.3-0.2-0.3-0.2-0.5-0.4c-0.2-0.2-0.3-0.3-0.2-0.6c0.1-0.3,0.1-1,0-1.6
		c-0.1-0.6-0.2-1.2-0.4-1.8c-0.2-0.6-0.2-1.1-0.2-1.5c0-0.4,0.3-0.6,0.3-0.6s2-1.4,2.4-1.6c0.4-0.2,0.6,0.3,0.5,0.5
		c-0.1,0.2-0.2,0.4-0.3,0.7c-0.2,0.3-0.2,0.7-0.2,1.1c0,0.3,0,0.9,0.4,1.7c0.4,0.8,0.7,1.7,0.8,2.5c0.1,0.7-0.1,1.2,0.1,1.6
		c0.3,0.4,0.4,0.4,0.9,0.7c0.5,0.3,1,0.7,1.3,0.9c0.3,0.3,0.4,0.4,0.7,0.4c0.3,0,1,0,1.3,0c0.3,0,0.8,0.1,1.1,0
		c0.7-0.1,1,0.1,0.7-0.5c-0.2-0.4-0.9-0.8-1-0.8c-0.1,0-0.7-0.1-0.9-0.2c-0.2-0.1-0.6,0-0.6-0.5c0-0.5-0.3-1.5-0.3-1.5
		s-0.1-1.2-0.1-1.7c0-0.5,0-1.1,0.2-1.4c0.2-0.3,0.4-1,0.4-1s0.3,0.6,1.1,1.1c0.8,0.5,1.2,1,1.7,1.5c0.5,0.5,1.9,1.1,1.9,1.1
		s0.9,0,0.9,0.2c0,0.2,0,1-0.2,1c-0.2,0.1-0.5,0-0.2,0.4c0.3,0.4,0.2,0.4,0.2,0.6c-0.1,0.2,0.2,0.8,0.5,0.7c0.2,0,0.8-0.3,1-0.7
		c0.2-0.3,0.5-0.8,0.5-1.3c0.1-0.5,0.1,0,0.2-1.1c0.1-1.1,0.2-1.1-0.2-1.6c-0.4-0.4-1.1-1.3-1.5-1.7c-0.3-0.4-1.1-1.3-1.3-1.6
		C37,13,36.7,12.8,37,12.2c0.2-0.6,0.6-0.9,0.7-1.4c0.1-0.5,0-0.8,0.1-1.1c0.1-0.3,0.6-0.6,0.7-0.6C38.7,9,39,8.9,39,8.9l0.6,0
		c0,0,0.7,0.2,1,0.2c0.3,0,0.2-0.1,0.7,0.1c0.5,0.2,0.6,0.3,1.1,0.4c0.4,0.2,0.1,0,0.6,0.2c0.4,0.2,0.4,0.2,0.9,0.4
		c0.5,0.1,0.6,0.2,1,0.4c0.5,0.2,0.7,0.3,0.8,0.3c0.2,0,0.4-0.2,0.5-0.3c0.1-0.1,0.2-0.3,0.2-0.3s0.4-0.4,0.5-0.6
		C47,9.5,47.2,9.2,47.3,9c0.1-0.2,0.1-0.3,0.2-0.4C47.6,8.6,47.5,8.2,47.4,8.1z"/>
	<path class="st0" d="M12.5,14.5c0,2.5-1.1,3.6-3,3.6c-1.5,0-2.8-0.8-4-2.2l-3,3.4c1.5,1.8,3.8,3.3,7.2,3.3c0.5,0,1,0,1.5-0.1
		l6.3-15V0.3h-5V14.5z"/>
</g>
</svg>
