<svg xmlns="http://www.w3.org/2000/svg" viewBox="0 0 45.08 22.32"><defs><style>.a{fill:#fff;}</style></defs><title>Jeremy</title><path class="a" d="M47.41,8.08c-.09-.13-.25-.12-.78-.53A5.25,5.25,0,0,1,45.49,6c-.15-.28-.13-.56-.56-.94a5.32,5.32,0,0,0-1-.65c-.22-.12-.5-.59-.66-.68s-.31-.16-.31-.34-.07-1-.22-1.06a.68.68,0,0,0-.47-.12,2.91,2.91,0,0,1-.44,0l-.37.06-.31-.15s.12-.47-.06-.56a2,2,0,0,0-.47-.22.79.79,0,0,0-.37.06s-.25.09-.37.16a3.82,3.82,0,0,1-.47.16,9,9,0,0,0-1-.18H36.61c-.44,0-.34-.31-.84-.34S34.7.94,34.36.94,33.58.88,33.23.88a2.37,2.37,0,0,0-.81.1,4.64,4.64,0,0,1-1.56.32c-.75,0-1.41,0-2.09-.05S27.68,1,27.3,1l-.74,0L22.41,11.11l-2.15,5.27c.3.28.59.56.78.72a3.31,3.31,0,0,1,1,1.34,2.66,2.66,0,0,1,.19,1c0,.59.1,1,.47,1.31l1,.75c.64.48.42.25,1.56.28.25,0,.87.06,1.12.06s1-.07,1.28-.07.83,0,.83,0,.47-.61-.47-1a5.07,5.07,0,0,0-1.25-.45c-.18,0-.14,0-.42-.15s-.34-.16-.5-.37-.28-.33-.16-.64a4,4,0,0,0,0-1.62,17.37,17.37,0,0,0-.35-1.78,6,6,0,0,1-.22-1.5.69.69,0,0,1,.25-.6s2-1.44,2.43-1.63.59.28.47.5-.19.41-.34.72a2.08,2.08,0,0,0-.15,1.06A3.84,3.84,0,0,0,28.17,16,8.33,8.33,0,0,1,29,18.54c.1.75-.12,1.19.13,1.59s.41.44.88.71a7,7,0,0,1,1.25.93c.28.28.38.4.69.4s1,0,1.31,0a7.59,7.59,0,0,0,1.09,0c.75-.07,1,.12.67-.53a2,2,0,0,0-1-.76,6.69,6.69,0,0,1-.94-.15c-.22-.06-.6,0-.63-.5a14.58,14.58,0,0,0-.25-1.51s-.1-1.19-.07-1.69a4.86,4.86,0,0,1,.18-1.44c.15-.34.37-1,.37-1a2.89,2.89,0,0,0,1.1,1.12,7.42,7.42,0,0,1,1.69,1.46,8.55,8.55,0,0,0,1.91,1.15s.91,0,.91.18,0,1-.18,1-.5,0-.19.38.24.37.17.59.21.78.45.75a1.53,1.53,0,0,0,1-.66A4.79,4.79,0,0,0,40,19.28a5.43,5.43,0,0,0,.18-1.13c.09-1.09.21-1.12-.19-1.56s-1.13-1.28-1.47-1.65-1.07-1.31-1.28-1.62-.47-.53-.22-1.12.62-.91.68-1.44,0-.81.09-1.09a1.44,1.44,0,0,1,.75-.59c.16,0,.5-.16.5-.16l.56,0a6.8,6.8,0,0,0,1,.15c.28,0,.22-.12.72.09s.65.26,1.05.44a2.88,2.88,0,0,0,.56.2,5.19,5.19,0,0,0,.94.35,7.69,7.69,0,0,1,1,.39,3.69,3.69,0,0,0,.84.26.69.69,0,0,0,.51-.28l.19-.34s.37-.44.5-.56a4.34,4.34,0,0,0,.4-.56c.13-.19.12-.31.22-.37S47.5,8.2,47.41,8.08Z" transform="translate(-2.46 -0.34)"/><path class="a" d="M12.49,14.52c0,2.55-1.13,3.65-3,3.65-1.54,0-2.77-.82-4-2.2l-3,3.4a9,9,0,0,0,7.2,3.3,11.21,11.21,0,0,0,1.46-.1l6.34-15V.34h-5Z" transform="translate(-2.46 -0.34)"/></svg>