<?xml version="1.0" encoding="utf-8"?>
<!-- Generator: Adobe Illustrator 21.0.2, SVG Export Plug-In . SVG Version: 6.00 Build 0)  -->
<svg version="1.1" id="Layer_1" xmlns="http://www.w3.org/2000/svg" xmlns:xlink="http://www.w3.org/1999/xlink" x="0px" y="0px"
	 viewBox="0 0 85 39" style="enable-background:new 0 0 85 39;" xml:space="preserve">
<style type="text/css">
	.st0{fill:#FFFFFF;}
</style>
<title>Forbes</title>
<desc>Created with Sketch.</desc>
<g id="_x23_00a1e4ff">
	<path class="st0" d="M41.4,1.5h1.9c0,0.7,0,1.3,0,2c0.7,0,1.3,0,2,0c0,0.6,0,1.3,0,1.9c-0.6,0-1.3,0-1.9,0c0,0.6,0,1.3,0,1.9
		c-0.6,0-1.3,0-1.9,0c0-0.6,0-1.3,0-2c-0.7,0-1.3,0-2,0c0-0.6,0-1.3,0-1.9c0.7,0,1.3,0,2,0C41.4,2.8,41.4,2.1,41.4,1.5z"/>
	<path class="st0" d="M30.1,6.9c2-0.5,4.1,1.2,4.1,3.2c0.2,1.8-1.4,3.5-3.2,3.5c-1.6,0.1-3.1-1-3.5-2.6C27,9.3,28.3,7.3,30.1,6.9z"
		/>
	<path class="st0" d="M37.9,6.9c2-0.5,4.1,1.2,4.1,3.2c0.2,1.8-1.5,3.5-3.3,3.5c-1.6,0.1-3.1-1.2-3.4-2.8
		C34.9,9.1,36.1,7.3,37.9,6.9z"/>
	<path class="st0" d="M45.7,6.9c1.9-0.5,4,1.1,4.1,3c0.2,1.3-0.6,2.7-1.8,3.3c-1.2,0.7-2.9,0.4-3.9-0.5c-1.1-1.1-1.4-2.9-0.5-4.3
		C44,7.7,44.8,7.1,45.7,6.9z"/>
	<path class="st0" d="M53.5,6.9c1.7-0.4,3.6,0.8,3.9,2.5c0.3,1.3-0.2,2.8-1.3,3.6c-1,0.8-2.5,0.9-3.6,0.2c-1.2-0.6-1.9-2.1-1.7-3.4
		C51,8.4,52.1,7.2,53.5,6.9z"/>
	<path class="st0" d="M30.7,18.5c0-1.4,0-2.7,0-4.1c7.8,0,15.6,0,23.4,0c0,1.3,0,2.7,0,4C46.3,18.5,38.5,18.5,30.7,18.5z"/>
	<path class="st0" d="M11.5,22c2,0,3.9,0,5.9,0c0,1.9,0,3.8,0,5.7c2-1.9,3.9-3.8,5.8-5.7c2,0,4,0,6,0c-2.3,2.3-4.6,4.6-6.9,6.9
		c2.9,2.8,5.6,5.6,8.5,8.4c0-5.1,0-10.2,0-15.3c2,0,4,0,6,0c0,3.9,0,7.7,0,11.6c3.2,0,6.4,0,9.6,0c0,1.3,0,2.6,0,3.9
		c-7.8,0-15.6,0-23.4,0c-1.8-1.9-3.7-3.7-5.6-5.6c0,1.9,0,3.7,0,5.6c-2,0-4,0-6,0V22z"/>
	<path class="st0" d="M48.1,22c3.2,0,6.5,0,9.7,0c1,2.8,1.9,5.6,2.9,8.4c0.1-0.1,0.2-0.2,0.2-0.4c0.9-2.7,1.9-5.3,2.8-8
		c3.3,0,6.5,0,9.8,0v15.5c-2,0-4,0-6,0c0-3.6,0-7.2,0-10.7c-0.3,0.2-0.3,0.5-0.4,0.8c-1.2,3.3-2.3,6.6-3.5,10c-1.9,0-3.8,0-5.6,0
		c-1.2-3.4-2.4-6.8-3.6-10.2c0-0.2-0.1-0.3-0.3-0.4c0,3.5,0,7.1,0,10.6c-2,0-4,0-6,0C48.1,32.4,48.1,27.2,48.1,22z"/>
</g>
</svg>
