<?xml version="1.0" encoding="utf-8"?>
<!-- Generator: Adobe Illustrator 21.0.1, SVG Export Plug-In . SVG Version: 6.00 Build 0)  -->
<svg version="1.1" id="Layer_1" xmlns="http://www.w3.org/2000/svg" xmlns:xlink="http://www.w3.org/1999/xlink" x="0px" y="0px"
	 viewBox="0 0 65 16" style="enable-background:new 0 0 65 16;" xml:space="preserve">
<style type="text/css">
	.st0{fill:#cdcdcd;}
</style>
<title>BuzzFeed</title>
<desc>Created with Sketch.</desc>
<g>
	<path class="st0" d="M63.5,12.7h-0.2v-0.4h0.2c0.1,0,0.3,0,0.3,0.2C63.8,12.6,63.6,12.7,63.5,12.7L63.5,12.7z M63.6,12.8
		c0.2,0,0.3-0.1,0.3-0.3c0-0.2-0.1-0.3-0.4-0.3h-0.4v1.1h0.2v-0.5h0.2l0,0l0.3,0.5h0.2L63.6,12.8L63.6,12.8L63.6,12.8z"/>
	<path class="st0" d="M63.5,13.6c-0.5,0-0.9-0.4-0.9-0.9c0-0.5,0.4-0.9,0.9-0.9c0.5,0,0.9,0.4,0.9,0.9C64.3,13.2,64,13.6,63.5,13.6
		L63.5,13.6z M63.5,11.7c-0.6,0-1,0.4-1,1c0,0.6,0.5,1,1,1c0.6,0,1-0.4,1-1C64.5,12.1,64,11.7,63.5,11.7L63.5,11.7z"/>
	<polygon class="st0" points="0.5,2.5 2.9,2.5 2.9,11.3 7.3,11.3 7.3,13.5 0.5,13.5 0.5,2.5 	"/>
	<path class="st0" d="M9.5,2.4c0.7,0,1.3,0.6,1.3,1.3c0,0.7-0.6,1.3-1.3,1.3C8.8,5,8.2,4.4,8.2,3.7C8.2,3,8.8,2.4,9.5,2.4 M8.4,6.1
		h2.3v7.4H8.4V6.1L8.4,6.1z"/>
	<polygon class="st0" points="20.3,2.5 22.6,2.5 22.6,9.1 25.2,6.1 28.1,6.1 25,9.5 28,13.5 25.1,13.5 22.7,9.8 22.6,9.8 22.6,13.5 
		20.3,13.5 20.3,2.5 	"/>
	<path class="st0" d="M12,6.1h2.2v1h0c0.3-0.6,1.1-1.2,2.2-1.2c2.3,0,2.8,1.5,2.8,3.5v4.1h-2.3V9.9c0-0.9,0-2-1.2-2
		c-1.2,0-1.4,0.9-1.4,1.9v3.7H12V6.1L12,6.1z"/>
	<path class="st0" d="M34.8,12.2c-0.7,0.9-1.9,1.5-3.1,1.5c-2.3,0-4.1-1.5-4.1-3.9c0-2.4,1.8-3.9,4.1-3.9c2.2,0,3.5,1.5,3.5,3.9v0.7
		h-5.3c0.2,0.9,0.8,1.4,1.7,1.4c0.8,0,1.3-0.4,1.6-0.9L34.8,12.2L34.8,12.2z M32.9,8.9c0-0.8-0.6-1.4-1.4-1.4c-1,0-1.6,0.7-1.6,1.4
		H32.9L32.9,8.9z"/>
	<path class="st0" d="M44,13.5h-2.1v-1h0c-0.4,0.5-1.2,1.2-2.3,1.2c-2.2,0-3.7-1.6-3.7-3.9c0-2.1,1.3-4,3.4-4c1,0,1.8,0.3,2.4,1h0
		V2.5H44V13.5L44,13.5z M40,7.8c-1.2,0-1.8,0.8-1.8,1.9c0,1.1,0.7,1.9,1.8,1.9c1.2,0,1.8-0.8,1.8-1.9C41.8,8.6,41.2,7.8,40,7.8"/>
	<path class="st0" d="M59.5,13.5h-2.3V9.9c0-0.9,0-2-1.2-2c-1.2,0-1.4,0.9-1.4,1.9v3.7h-2.3V6.1h2.2v1h0c0.3-0.6,1.1-1.2,2.2-1.2
		c2.3,0,2.8,1.5,2.8,3.5V13.5L59.5,13.5z M49.7,5c-0.7,0-1.3-0.6-1.3-1.3c0-0.7,0.6-1.3,1.3-1.3c0.7,0,1.3,0.6,1.3,1.3
		C51.1,4.4,50.5,5,49.7,5L49.7,5z M50.9,13.5h-2.3V6.1h2.3V13.5L50.9,13.5z M60.6,0.2H47.4c-0.6,0-1.1,0.5-1.1,1.1v13.3
		c0,0.6,0.5,1.1,1.1,1.1h13.2c0.6,0,1.1-0.5,1.1-1.1V1.4C61.8,0.7,61.3,0.2,60.6,0.2L60.6,0.2z"/>
</g>
</svg>
