<svg xmlns="http://www.w3.org/2000/svg" viewBox="0 0 138.66 18.25"><defs><style>.a{fill:#cdcdcd;}</style></defs><title>NYT-grey</title><path class="a" d="M13.58,4.24c0-1.49-1.4-1.92-2.57-1.87v.23c.7,0,1.24.25,1.24.72s-.23.74-.93.74a10.54,10.54,0,0,1-2.49-.61,8.93,8.93,0,0,0-2.6-.63A2.49,2.49,0,0,0,3.64,5.27,1.71,1.71,0,0,0,4.8,6.9l.11-.18A.78.78,0,0,1,4.48,6a.93.93,0,0,1,1-.84,12.1,12.1,0,0,1,2.76.65A22.41,22.41,0,0,0,11,6.42V8.75L9.9,9.7v.09l1.15,1V14a3.74,3.74,0,0,1-1.87.43,3.76,3.76,0,0,1-3-1.2l3.09-1.49V6.59L5.52,8.28a4.49,4.49,0,0,1,2-2.15l-.05-.18a5.69,5.69,0,0,0-4.29,5.22,5.29,5.29,0,0,0,5.29,5.31,4.83,4.83,0,0,0,5-4.92l-.18,0a5.21,5.21,0,0,1-1.94,2.37V10.79l1.22-1,0-.11-1.2-1V6.42a2.18,2.18,0,0,0,2.28-2.17ZM7,12.59,6.11,13a4.56,4.56,0,0,1-.86-2.87,5.24,5.24,0,0,1,.22-1.62L7,7.85l0,4.74Zm8,1.67L14,15l.13.14.48-.34,1.69,1.54,2.26-1.51-.11-.16-.59.38-.74-.74V9.16l.61-.45,1.29,1v4.58c0,2.85-.63,3.32-1.92,3.79v.2c2.14.09,4.06-.63,4.06-4.29V9.11l.68-.54-.13-.16-.59.47-1.85-1.6L17.13,8.89V2.68H17L14.29,4.48v.16A1.08,1.08,0,0,1,15,5.81v8.45Zm13.78-.81-1.85,1.44L25,13.38v-.9l3.57-2.39V10L26.82,7.26,22.92,9.34v5l-.77.59.13.16.7-.56,2.55,1.85,3.41-2.69-.14-.2ZM25,12.21V8.51l.13-.09L26.8,11,25,12.21ZM43.22,3.56a2.12,2.12,0,0,0-.14-.7h-.18c-.23.63-.52,1-1.26,1a2,2,0,0,1-1.42-.68s-2.15,2.49-2.15,2.49l.18.16.61-.7a2.53,2.53,0,0,0,1.85.72V12.1L36.29,4.46a2.4,2.4,0,0,0-2-1.44,2.29,2.29,0,0,0-2.14,2.75h.22c.05-.47.29-1,.81-1a1.31,1.31,0,0,1,1,.75V8c-1.36,0-2.26.63-2.26,1.74a1.68,1.68,0,0,0,1.24,1.72l0-.16a.69.69,0,0,1-.25-.52c0-.41.31-.68.86-.68a2.43,2.43,0,0,1,.39,0v3.19c-1.6,0-2.83.9-2.83,2.4a2.15,2.15,0,0,0,2.53,2l0-.18c-.81-.09-1.24-.47-1.24-1a1,1,0,0,1,1.06-1,2.12,2.12,0,0,1,1.53.81L37.42,14l-.18-.16-.56.63a3.72,3.72,0,0,0-2.24-1.15V5.79l6.08,10.6H41V5.82a2.32,2.32,0,0,0,2.26-2.26Zm5.44,9.89-1.85,1.44-1.92-1.51v-.9l3.57-2.39V10L46.68,7.26,42.79,9.34v5l-.77.59.13.16.7-.56,2.55,1.85,3.41-2.69-.14-.2Zm-3.77-1.24V8.51L45,8.42,46.66,11l-1.78,1.18ZM61,8.08l-.56.41L59,7.28,57.34,8.78l.68.65v5.69L56.19,14V9.32l.59-.41L55,7.28,53.39,8.78l.68.65v5.4l-.23.14-1.6-1.13V9.3c0-1-.5-1.35-1.17-1.76s-.81-.63-.81-1.15.43-.68.65-.81a.68.68,0,0,1,0-.18,2.34,2.34,0,0,0-2.21,2.06,1.71,1.71,0,0,0,.72,1.44,1.74,1.74,0,0,1,.72,1.33V14.6l-.81.63.13.16.74-.57,2,1.56,1.88-1.27,2.08,1.27,4-2.33V9l1-.72L61,8.08ZM75,3.94l-.75.68L72.54,3.15,70.08,5V3.26h-.25l.05,12.22c-.25,0-.88-.18-1.45-.27L68.37,5A1.79,1.79,0,0,0,66.49,3.2a2.19,2.19,0,0,0-2.28,2.12h.22c.07-.45.31-.84.75-.84s.86.29.86,1.29V8.71c-1.38.05-2.17.83-2.17,1.78A1.39,1.39,0,0,0,65.11,12l0-.18a.55.55,0,0,1-.39-.52c0-.43.41-.61,1-.61H66v4.67a2.15,2.15,0,0,0-1.6,2.1,2.27,2.27,0,0,0,2.48,2.21,12.61,12.61,0,0,0,2.89-.39A14.37,14.37,0,0,1,71.93,19c.57,0,.83.27.83.68a.72.72,0,0,1-.54.81l0,.18a2.09,2.09,0,0,0,2-2.08c0-1.15-1.09-1.83-2.31-1.83a15.67,15.67,0,0,0-2.8.41,14.49,14.49,0,0,1-2.42.34c-.52,0-1.17-.25-1.17-1s.52-1.13,1.81-1.13a10.71,10.71,0,0,1,2.35.3,12.58,12.58,0,0,0,2.51.45c1.09,0,2.08-.4,2.08-2V4.85l.88-.75L75,3.94ZM71.89,8.59A1.26,1.26,0,0,1,71,9a1.38,1.38,0,0,1-.92-.43V5.23l.77-.52,1,1V8.59Zm0,2.24a1.31,1.31,0,0,0-.9-.38,1.49,1.49,0,0,0-.92.38v-2a1.5,1.5,0,0,0,.92.39,1.31,1.31,0,0,0,.9-.39v2Zm0,3.52a1.16,1.16,0,0,1-1.2,1.2c-.13,0-.48,0-.61,0V11.1a1.41,1.41,0,0,1,.92-.41,1.36,1.36,0,0,1,.9.41v3.25ZM82.19,9,79.75,7.26l-3.66,2.1v4.92l-.75.61.11.16.59-.48,2.42,1.78,3.73-2.28V9Zm-4,4.76V8.37l1.9,1.36v5.38l-1.9-1.36Zm11.2-6.3s-.14,0-.14,0a1.07,1.07,0,0,1-.66.3,1.19,1.19,0,0,1-.84-.41h-.14l-1.27,1.4L85,7.35,82.78,8.89l.11.18.59-.39.77.83v4.76l-1,.75.13.14.48-.34,1.81,1.54L88,14.79l-.11-.16-.66.39-.88-.79V8.94a1.94,1.94,0,0,0,1.35.77c1,0,1.56-1.11,1.67-2.26Zm9.06,7.23-2.57,1.69L92.4,11.12l2.46-3.82.16,0a2,2,0,0,0,1.26.59,1.32,1.32,0,0,0,1.09-.59s.14,0,.14,0a2.3,2.3,0,0,1-1.88,2.39A2.62,2.62,0,0,1,94,9.05l-.23.34L97.58,15l.75-.47.11.18Zm-8.29-.43-1,.75.13.14.48-.34,1.69,1.54,2.26-1.51-.13-.16-.57.38-.74-.74V2.68h-.16L89.38,4.5v.16a1.06,1.06,0,0,1,.77,1.15v8.45Zm20.8-10c0-1.49-1.4-1.92-2.57-1.87v.23c.7,0,1.24.25,1.24.72s-.23.74-.93.74a10.54,10.54,0,0,1-2.49-.61,8.93,8.93,0,0,0-2.6-.63A2.49,2.49,0,0,0,101,5.27a1.71,1.71,0,0,0,1.17,1.63l.11-.18a.78.78,0,0,1-.43-.74.93.93,0,0,1,1-.84,12.1,12.1,0,0,1,2.76.65,22.41,22.41,0,0,0,2.76.63V8.75l-1.15,1v.09l1.15,1V14a4.25,4.25,0,0,1-4.83-.77l3.09-1.49V6.59l-3.79,1.69a4.49,4.49,0,0,1,2-2.15l-.05-.18a5.69,5.69,0,0,0-4.29,5.22,5.29,5.29,0,0,0,5.29,5.31,4.83,4.83,0,0,0,5-4.92l-.18,0a5.21,5.21,0,0,1-1.94,2.37V10.79l1.22-1,0-.11-1.2-1V6.42A2.18,2.18,0,0,0,111,4.24Zm-6.55,8.34-.92.45a4.56,4.56,0,0,1-.86-2.87,5.24,5.24,0,0,1,.22-1.62l1.58-.7,0,4.74Zm9.13-9-.11,0L111.92,4.8v.11l1.27,1.44h.13l1.51-1.26,0-.09-1.27-1.45Zm2.3,11.14-.57.38-.74-.74V9.12l.72-.54-.14-.18-.56.43-1.31-1.56-2.15,1.51.13.2.54-.36.66.83v4.88l-1,.74.11.14.5-.36,1.65,1.51L116,14.85l-.13-.16Zm12.56-.09-.54.36-.81-.74V9.11l.77-.57-.13-.16-.66.5-1.72-1.6-2.22,1.58-1.7-1.58-2.19,1.56-1.35-1.56-2.15,1.51.11.2.54-.36.74.81v4.88l-.59.59,1.72,1.45,1.67-1.51-.68-.65V9.11l.65-.43L121,9.75v4.56l-.57.59,1.74,1.45,1.63-1.51-.68-.65V9.07l.57-.38,1.24,1.06v4.49l-.5.52,1.76,1.6,2.31-1.58-.11-.18Zm6.55-1.15-1.85,1.44-1.92-1.51v-.9l3.57-2.39V10L133,7.26l-3.89,2.08v5.11l2.6,1.88,3.41-2.69-.14-.2Zm-3.77-1.24V8.51l.13-.09,1.65,2.6-1.78,1.18Zm10.66-.7-1.45-1.09a3.82,3.82,0,0,0,1.35-2.75c0-.11,0-.31,0-.48h-.18a1,1,0,0,1-1,.74,1.81,1.81,0,0,1-1.35-.72L135.75,9v2.75l1.26,1c-1.27,1.13-1.51,1.92-1.51,2.49a1.52,1.52,0,0,0,1,1.54l.09-.16a.64.64,0,0,1-.3-.57c0-.25.3-.61.88-.61a1.88,1.88,0,0,1,1.42.77s3.27-2,3.27-2V11.51ZM141,9.25a9.26,9.26,0,0,1-2.31,2.28l-.83-.65V8.21a2.23,2.23,0,0,0,3.14,1Zm-1.33,6a2.46,2.46,0,0,0-2.15-1.45,2.66,2.66,0,0,0-1.42.36,8.41,8.41,0,0,1,2.64-2.42l.93.72v2.8Z" transform="translate(-3.17 -2.37)"/></svg>