<?xml version="1.0" encoding="utf-8"?>
<!-- Generator: Adobe Illustrator 21.0.2, SVG Export Plug-In . SVG Version: 6.00 Build 0)  -->
<svg version="1.1" id="Layer_1" xmlns="http://www.w3.org/2000/svg" xmlns:xlink="http://www.w3.org/1999/xlink" x="0px" y="0px"
	 viewBox="0 0 145 23" style="enable-background:new 0 0 145 23;" xml:space="preserve">
<style type="text/css">
	.st0{fill:#FFFFFF;}
</style>
<path class="st0" d="M13.6,4.2c0-1.5-1.4-1.9-2.6-1.9v0.2c0.7,0,1.2,0.3,1.2,0.7c0,0.3-0.2,0.7-0.9,0.7c-0.6,0-1.6-0.3-2.5-0.6
	C7.9,3.1,7,2.8,6.2,2.8c-1.5,0-2.6,1.1-2.6,2.4c0,1.1,0.8,1.5,1.2,1.6l0.1-0.2C4.7,6.6,4.5,6.4,4.5,6c0-0.3,0.3-0.8,1-0.8
	c0.7,0,1.6,0.3,2.8,0.6c1,0.3,2.2,0.6,2.8,0.6v2.3l-1.1,1v0.1l1.1,1V14c-0.6,0.3-1.3,0.4-1.9,0.4c-1.1,0-2.1-0.3-3-1.2l3.1-1.5V6.6
	L5.5,8.3c0.4-1,1.2-1.7,2-2.2L7.5,5.9c-2.2,0.6-4.3,2.7-4.3,5.2c0,3.1,2.5,5.3,5.3,5.3c3.1,0,5-2.4,5-4.9l-0.2,0
	c-0.4,1-1.1,1.9-1.9,2.4v-3.1l1.2-1l0-0.1l-1.2-1V6.4C12.4,6.4,13.6,5.7,13.6,4.2L13.6,4.2z M7,12.6L6.1,13
	c-0.5-0.7-0.9-1.6-0.9-2.9c0-0.5,0.1-1.2,0.2-1.6L7,7.9L7,12.6L7,12.6z M15,14.3L14,15l0.1,0.1l0.5-0.3l1.7,1.5l2.3-1.5l-0.1-0.2
	l-0.6,0.4l-0.7-0.7V9.2l0.6-0.4l1.3,1v4.6c0,2.9-0.6,3.3-1.9,3.8v0.2c2.1,0.1,4.1-0.6,4.1-4.3V9.1l0.7-0.5l-0.1-0.2l-0.6,0.5
	l-1.8-1.6l-2.2,1.6V2.7H17l-2.7,1.8v0.2C14.6,4.8,15,4.9,15,5.8V14.3L15,14.3z M28.8,13.4l-1.8,1.4L25,13.4v-0.9l3.6-2.4V10
	l-1.8-2.7l-3.9,2.1v5l-0.8,0.6l0.1,0.2l0.7-0.6l2.5,1.8l3.4-2.7L28.8,13.4L28.8,13.4z M25,12.2V8.5l0.1-0.1l1.7,2.6L25,12.2L25,12.2
	z M43.2,3.6c0-0.2-0.1-0.4-0.1-0.7h-0.2c-0.2,0.6-0.5,1-1.3,1c-0.6,0-1.1-0.4-1.4-0.7c0,0-2.2,2.5-2.2,2.5l0.2,0.2l0.6-0.7
	c0.5,0.4,0.8,0.7,1.8,0.7v6.3l-4.4-7.6C36,3.9,35.4,3,34.3,3c-1.2,0-2.3,1-2.1,2.7h0.2c0.1-0.5,0.3-1,0.8-1c0.4,0,0.8,0.4,1,0.8V8
	c-1.4,0-2.3,0.6-2.3,1.7c0,0.6,0.3,1.5,1.2,1.7l0-0.2c-0.1-0.1-0.3-0.3-0.3-0.5c0-0.4,0.3-0.7,0.9-0.7c0.1,0,0.3,0,0.4,0v3.2
	c-1.6,0-2.8,0.9-2.8,2.4c0,1.4,1.2,2.1,2.5,2l0-0.2c-0.8-0.1-1.2-0.5-1.2-1c0-0.6,0.5-1,1.1-1c0.6,0,1.1,0.4,1.5,0.8l2.2-2.4
	l-0.2-0.2l-0.6,0.6c-0.8-0.7-1.3-1-2.2-1.1V5.8l6.1,10.6H41V5.8C42.1,5.8,43.2,4.9,43.2,3.6L43.2,3.6z M48.7,13.4l-1.8,1.4l-1.9-1.5
	v-0.9l3.6-2.4V10l-1.8-2.7l-3.9,2.1v5L42,14.9l0.1,0.2l0.7-0.6l2.5,1.8l3.4-2.7L48.7,13.4L48.7,13.4z M44.9,12.2V8.5L45,8.4l1.7,2.6
	L44.9,12.2L44.9,12.2z M61,8.1l-0.6,0.4L59,7.3l-1.7,1.5L58,9.4v5.7L56.2,14V9.3l0.6-0.4L55,7.3l-1.6,1.5l0.7,0.6v5.4L53.8,15
	l-1.6-1.1V9.3c0-1-0.5-1.3-1.2-1.8c-0.6-0.3-0.8-0.6-0.8-1.1c0-0.4,0.4-0.7,0.6-0.8c0,0,0-0.2,0-0.2c-0.6,0-2.2,0.6-2.2,2.1
	c0,0.8,0.3,1.1,0.7,1.4c0.4,0.4,0.7,0.7,0.7,1.3v4.4l-0.8,0.6l0.1,0.2l0.7-0.6l2,1.6l1.9-1.3l2.1,1.3l4-2.3V9l1-0.7L61,8.1L61,8.1z
	 M75,3.9l-0.8,0.7l-1.7-1.5L70.1,5V3.3h-0.3l0.1,12.2c-0.3,0-0.9-0.2-1.5-0.3L68.4,5c0-0.8-0.5-1.8-1.9-1.8c-1.4,0-2.3,1.1-2.3,2.1
	h0.2c0.1-0.4,0.3-0.8,0.8-0.8c0.5,0,0.9,0.3,0.9,1.3v2.9c-1.4,0.1-2.2,0.8-2.2,1.8c0,0.6,0.3,1.5,1.2,1.5l0-0.2
	c-0.3-0.1-0.4-0.3-0.4-0.5c0-0.4,0.4-0.6,1-0.6H66v4.7c-1.1,0.4-1.6,1.2-1.6,2.1c0,1.3,1,2.2,2.5,2.2c1,0,1.9-0.2,2.9-0.4
	c0.8-0.2,1.7-0.3,2.2-0.3c0.6,0,0.8,0.3,0.8,0.7c0,0.5-0.2,0.7-0.5,0.8l0,0.2c1.2-0.2,2-1,2-2.1c0-1.1-1.1-1.8-2.3-1.8
	c-0.6,0-1.9,0.2-2.8,0.4c-1,0.2-2.1,0.3-2.4,0.3c-0.5,0-1.2-0.3-1.2-1c0-0.6,0.5-1.1,1.8-1.1c0.7,0,1.5,0.1,2.4,0.3
	c0.9,0.2,1.7,0.4,2.5,0.4c1.1,0,2.1-0.4,2.1-2V4.9l0.9-0.8L75,3.9L75,3.9z M71.9,8.6C71.7,8.8,71.4,9,71,9c-0.4,0-0.7-0.3-0.9-0.4
	V5.2l0.8-0.5l1,1V8.6L71.9,8.6z M71.9,10.8c-0.2-0.2-0.5-0.4-0.9-0.4c-0.4,0-0.8,0.2-0.9,0.4v-2C70.2,9,70.6,9.2,71,9.2
	c0.4,0,0.7-0.2,0.9-0.4V10.8L71.9,10.8z M71.9,14.3c0,0.6-0.4,1.2-1.2,1.2c-0.1,0-0.5,0-0.6,0v-4.4c0.2-0.2,0.5-0.4,0.9-0.4
	c0.4,0,0.7,0.2,0.9,0.4V14.3L71.9,14.3z M82.2,9l-2.4-1.7l-3.7,2.1v4.9l-0.8,0.6l0.1,0.2l0.6-0.5l2.4,1.8l3.7-2.3V9L82.2,9z
	 M78.2,13.8V8.4l1.9,1.4v5.4L78.2,13.8L78.2,13.8z M89.4,7.5c0,0-0.1,0-0.1,0c-0.2,0.2-0.4,0.3-0.7,0.3c-0.3,0-0.7-0.2-0.8-0.4h-0.1
	l-1.3,1.4L85,7.3l-2.2,1.5l0.1,0.2l0.6-0.4l0.8,0.8v4.8l-1,0.8l0.1,0.1l0.5-0.3l1.8,1.5l2.4-1.6l-0.1-0.2L87.2,15l-0.9-0.8V8.9
	c0.4,0.4,0.8,0.8,1.3,0.8C88.7,9.7,89.3,8.6,89.4,7.5L89.4,7.5z M98.4,14.7l-2.6,1.7l-3.5-5.3l2.5-3.8l0.2,0
	c0.3,0.3,0.8,0.6,1.3,0.6c0.5,0,0.9-0.3,1.1-0.6c0,0,0.1,0,0.1,0c-0.1,1.5-1.1,2.4-1.9,2.4c-0.8,0-1.2-0.4-1.6-0.6l-0.2,0.3l3.8,5.6
	l0.8-0.5L98.4,14.7L98.4,14.7z M90.2,14.3l-1,0.8l0.1,0.1l0.5-0.3l1.7,1.5l2.3-1.5l-0.1-0.2L93,15.1l-0.7-0.7V2.7h-0.2l-2.7,1.8v0.2
	c0.3,0.2,0.8,0.2,0.8,1.1V14.3L90.2,14.3z M111,4.2c0-1.5-1.4-1.9-2.6-1.9v0.2c0.7,0,1.2,0.3,1.2,0.7c0,0.3-0.2,0.7-0.9,0.7
	c-0.6,0-1.6-0.3-2.5-0.6c-1-0.3-1.8-0.6-2.6-0.6c-1.5,0-2.6,1.1-2.6,2.4c0,1.1,0.8,1.5,1.2,1.6l0.1-0.2c-0.2-0.1-0.4-0.3-0.4-0.7
	c0-0.3,0.3-0.8,1-0.8c0.7,0,1.6,0.3,2.8,0.6c1,0.3,2.2,0.6,2.8,0.6v2.3l-1.1,1v0.1l1.1,1V14c-0.6,0.3-1.3,0.4-1.9,0.4
	c-1.1,0-2.1-0.3-3-1.2l3.1-1.5V6.6l-3.8,1.7c0.4-1,1.2-1.7,2-2.2l-0.1-0.2c-2.2,0.6-4.3,2.7-4.3,5.2c0,3.1,2.5,5.3,5.3,5.3
	c3.1,0,5-2.4,5-4.9l-0.2,0c-0.4,1-1.1,1.9-1.9,2.4v-3.1l1.2-1l0-0.1l-1.2-1V6.4C109.8,6.4,111,5.7,111,4.2L111,4.2z M104.4,12.6
	l-0.9,0.4c-0.5-0.7-0.9-1.6-0.9-2.9c0-0.5,0.1-1.2,0.2-1.6l1.6-0.7L104.4,12.6L104.4,12.6z M113.5,3.5l-0.1,0l-1.5,1.3v0.1l1.3,1.4
	h0.1l1.5-1.3l0-0.1L113.5,3.5L113.5,3.5z M115.8,14.7l-0.6,0.4l-0.7-0.7V9.1l0.7-0.5l-0.1-0.2l-0.6,0.4l-1.3-1.6l-2.2,1.5l0.1,0.2
	l0.5-0.4l0.7,0.8v4.9l-1,0.7l0.1,0.1l0.5-0.4l1.7,1.5l2.3-1.5L115.8,14.7L115.8,14.7z M128.4,14.6l-0.5,0.4l-0.8-0.7V9.1l0.8-0.6
	l-0.1-0.2L127,8.9l-1.7-1.6l-2.2,1.6l-1.7-1.6l-2.2,1.6l-1.3-1.6l-2.2,1.5l0.1,0.2l0.5-0.4l0.7,0.8v4.9l-0.6,0.6l1.7,1.5l1.7-1.5
	l-0.7-0.6V9.1l0.6-0.4l1.2,1.1v4.6l-0.6,0.6l1.7,1.5l1.6-1.5l-0.7-0.6V9.1l0.6-0.4l1.2,1.1v4.5l-0.5,0.5l1.8,1.6l2.3-1.6L128.4,14.6
	L128.4,14.6z M134.9,13.4l-1.8,1.4l-1.9-1.5v-0.9l3.6-2.4V10L133,7.3l-3.9,2.1v5.1l2.6,1.9l3.4-2.7L134.9,13.4L134.9,13.4z
	 M131.2,12.2V8.5l0.1-0.1l1.7,2.6L131.2,12.2L131.2,12.2z M141.8,11.5l-1.5-1.1c1-0.8,1.3-2,1.3-2.7c0-0.1,0-0.3,0-0.5h-0.2
	c-0.1,0.4-0.4,0.7-1,0.7c-0.6,0-1-0.3-1.3-0.7L135.7,9v2.7l1.3,1c-1.3,1.1-1.5,1.9-1.5,2.5c0,0.8,0.3,1.3,1,1.5l0.1-0.2
	c-0.2-0.1-0.3-0.2-0.3-0.6c0-0.3,0.3-0.6,0.9-0.6c0.7,0,1.2,0.5,1.4,0.8c0,0,3.3-2,3.3-2V11.5L141.8,11.5z M141,9.2
	c-0.5,0.9-1.7,1.8-2.3,2.3l-0.8-0.6V8.2c0.3,0.7,1.1,1.3,2,1.3C140.4,9.5,140.6,9.4,141,9.2L141,9.2z M139.7,15.2
	c-0.4-0.8-1.3-1.5-2.2-1.5c-0.2,0-0.8,0-1.4,0.4c0.3-0.6,1.3-1.7,2.6-2.4l0.9,0.7V15.2L139.7,15.2z"/>
</svg>
