<?xml version="1.0" encoding="utf-8"?>
<!-- Generator: Adobe Illustrator 21.0.1, SVG Export Plug-In . SVG Version: 6.00 Build 0)  -->
<svg version="1.1" id="Layer_1" xmlns="http://www.w3.org/2000/svg" xmlns:xlink="http://www.w3.org/1999/xlink" x="0px" y="0px"
	 viewBox="0 0 901 125" style="enable-background:new 0 0 901 125;" xml:space="preserve">
<style type="text/css">
	.st0{opacity:0.3;}
	.st1{fill:#CDCDCD;}
	.st2{fill:#CDCDCD;stroke:#CDCDCD;stroke-width:2;}
</style>
<title>OnBrandMe</title>
<desc>Created with Sketch.</desc>
<g id="Event" class="st0">
	<g id="Homepage" transform="translate(-290.000000, -3323.000000)">
		<g id="Block-3" transform="translate(0.000000, 3162.000000)">
			<g id="OnBrandMe" transform="translate(290.000000, 161.000000)">
				<path id="Shape" class="st1" d="M200.5,83.5c0-16.4,12.8-27.5,29.1-27.5s29.1,11.2,29.1,27.5S246,111,229.6,111
					S200.5,100,200.5,83.5z M242.5,83.5c0-7.4-5.1-13.4-12.9-13.4c-7.8,0-12.9,5.9-12.9,13.4s5,13.4,12.9,13.4
					C237.5,96.9,242.5,91,242.5,83.5z"/>
				<polygon id="Shape_1_" class="st1" points="300.4,110 281,82.9 281,110 265,110 265,56.6 281.4,56.6 299.8,81.8 299.8,56.6 
					315.6,56.6 315.6,110 				"/>
				<path id="Shape_2_" class="st1" d="M325.6,110V56.6h32.6c11.1,0,15.9,7.4,15.9,13.6c0,6.6-3.9,11.1-9.1,12.2
					c5.8,0.9,10.2,6.1,10.2,13.1c0,7.5-5.1,14.5-15.9,14.5L325.6,110L325.6,110L325.6,110z M357.6,73c0-0.9-0.4-1.6-0.9-2.1
					c-0.6-0.6-1.4-0.9-2.2-0.9h-12.6v6.2h12.6c0.9,0,1.6-0.4,2.2-1C357.2,74.8,357.6,73.9,357.6,73L357.6,73z M358.6,93.1
					c0-1-0.4-1.9-1.1-2.6c-0.8-0.6-1.6-1-2.6-0.9h-13v6.8h13c0.9,0.1,1.9-0.1,2.6-0.9C358.1,95,358.6,94.1,358.6,93.1L358.6,93.1z"
					/>
				<path id="Shape_3_" class="st1" d="M410.1,110l-7.4-16.9h-5.9V110h-16.1V56.6h28.6c12.6,0,19.2,8.4,19.2,18.4
					c0.4,6.9-3.5,13.1-9.6,16.1l9.6,18.9H410.1L410.1,110z M412.1,74.9c0-2.9-2.6-4.1-5.3-4.1H397v8.4h9.9
					C409.5,79,412,77.8,412.1,74.9L412.1,74.9z"/>
				<path id="Shape_4_" class="st1" d="M471.9,110l-2-6.4h-19.4l-1.9,6.4h-18.4l19.9-53.4h20.5l19.9,53.4H471.9z M460.2,72.5
					l-5.4,17.1h10.6L460.2,72.5z"/>
				<polygon id="Shape_5_" class="st1" points="492.5,110 492.5,56.6 508.4,56.6 508.4,81.8 526.6,56.6 543.1,56.6 543.1,110 
					527.1,110 527.1,82.9 507.9,110 				"/>
				<path id="Shape_6_" class="st1" d="M552,110V56.6h24c16.9,0,29.4,9.6,29.4,26.6S592.8,110,576.1,110H552L552,110L552,110z
					 M588.9,83.2c0-7.2-4.1-12.6-12.9-12.6h-7.9v25.1h7.8c3.4,0.1,6.9-1.1,9.3-3.5C587.8,90,589.1,86.6,588.9,83.2L588.9,83.2z"/>
				<rect id="Rectangle-path" x="203.9" y="115" class="st1" width="50.6" height="10"/>
				<path id="_x31_7" class="st2" d="M652.1,110.5h-11.6V71.4l-9.1,9.1l-6.5-6.9L642,56.5h10.1V110.5z M680.2,110.5h-12.8l19.6-43.9
					h-27.5V56.5h40.9v8L680.2,110.5z"/>
			</g>
		</g>
	</g>
</g>
</svg>
