<?xml version="1.0" encoding="UTF-8"?>
<svg width="160px" height="28px" viewBox="0 0 160 28" version="1.1" xmlns="http://www.w3.org/2000/svg" xmlns:xlink="http://www.w3.org/1999/xlink">
    <!-- Generator: Sketch 42 (36781) - http://www.bohemiancoding.com/sketch -->
    <title>Logo</title>
    <desc>Created with Sketch.</desc>
    <defs></defs>
    <g id="Report-Landing" stroke="none" stroke-width="1" fill="none" fill-rule="evenodd">
        <g id="LandingPage" transform="translate(-100.000000, -6299.000000)" fill="#2D2D2D">
            <g id="Footer" transform="translate(50.000000, 5859.000000)">
                <g transform="translate(50.000000, 440.000000)" id="Logo">
                    <g>
                        <path d="M0,10.9968634 C0,4.47904192 5.02427184,0 11.5,0 C17.9757282,0 23,4.47904192 23,10.9968634 C23,17.5146849 17.9881338,22 11.5,22 C5.01186624,22 0,17.5648703 0,10.9968634 Z M16.5490831,10.9968634 C16.5490831,8.02338181 14.5579827,5.67721699 11.5,5.67721699 C8.44201726,5.67721699 6.45091694,8.04847448 6.45091694,10.9968634 C6.45091694,13.9452524 8.43581446,16.3102367 11.5,16.3102367 C14.5641855,16.3102367 16.5490831,13.9766182 16.5490831,10.9968634 Z" id="Shape"></path>
                        <rect id="Rectangle-path" x="1" y="24" width="20" height="4"></rect>
                        <polygon id="Shape" points="38.9791539 21 31.3151441 10.3514151 31.3151441 21 25 21 25 0 31.4868179 0 38.7093807 9.90566038 38.7093807 2.06202979e-16 45 2.06202979e-16 45 21"></polygon>
                        <path d="M49,21 L49,0 L62.1503351,0 C66.6188956,0 68.5722949,2.9035967 68.5722949,5.33667453 C68.5722949,7.94929245 66.9827641,9.72612028 64.8697734,10.1409198 C67.1934248,10.493809 69,12.5739976 69,15.2732901 C69,18.207842 66.9508458,20.9690448 62.6163422,20.9690448 L49,20.9690448 L49,20.9690448 L49,21 Z M61.9013725,6.45725236 C61.8980994,6.13432279 61.7608715,5.82627747 61.5206546,5.60262766 C61.2804378,5.37897786 60.957474,5.25856952 60.6246409,5.26857311 L55.5177147,5.26857311 L55.5177147,7.74498821 L60.6246409,7.74498821 C60.9722881,7.74525805 61.3050157,7.60802771 61.5459731,7.3649935 C61.7869304,7.12195929 61.9152785,6.79413993 61.9013725,6.45725236 L61.9013725,6.45725236 Z M62.3290776,14.3755896 C62.3268234,13.9930731 62.1602981,13.6287724 61.8695467,13.3702923 C61.5787954,13.1118123 61.1901246,12.9825397 60.7969997,13.0135613 L55.5432493,13.0135613 L55.5432493,15.6818986 L60.8033833,15.6818986 C61.1877827,15.7297746 61.5749009,15.6155257 61.8666423,15.3681026 C62.1583837,15.1206795 62.3267501,14.763827 62.3290776,14.3879717 L62.3290776,14.3755896 Z" id="Shape"></path>
                        <path d="M82.6790365,21 L79.7420563,14.3879717 L77.4187734,14.3879717 L77.4187734,21 L71,21 L71,0 L82.3408767,0 C87.3506511,0 89.9933071,3.26267689 89.9933071,7.20636792 C90.1130277,9.88184443 88.6181858,12.3732866 86.1858786,13.5521816 L89.9933071,20.9814269 L82.6790365,20.9814269 L82.6790365,21 Z M83.4618137,7.18160377 C83.4618137,6.05483491 82.4410722,5.55336085 81.3639707,5.55336085 L77.4187734,5.55336085 L77.4187734,8.84699292 L81.3514463,8.84699292 C82.4285478,8.84080189 83.4492893,8.31456368 83.4492893,7.18160377 L83.4618137,7.18160377 Z" id="Shape"></path>
                        <path d="M106.641181,21 L105.881888,18.5235849 L98.1307672,18.5235849 L97.3714738,21 L90,21 L97.9093066,0 L106.090693,0 L114,21 L106.641181,21 Z M102.003164,6.22818396 L99.8834695,12.9887972 L104.129185,12.9887972 L102.003164,6.22818396 Z" id="Shape"></path>
                        <polygon id="Shape" points="115 21 115 0 121.284488 0 121.284488 9.90566038 128.507051 2.06202979e-16 135 2.06202979e-16 135 21 128.715512 21 128.715512 10.3514151 121.051502 21 115 21"></polygon>
                        <path d="M139,21 L139,0 L148.42603,0 C155.075304,0 160,3.76415094 160,10.4690448 C160,17.1739387 155.019271,20.993809 148.45716,20.993809 L139,20.993809 L139,20.993809 L139,21 Z M153.525052,10.4752358 C153.525052,7.62735849 151.887637,5.52240566 148.45716,5.52240566 L145.387785,5.52240566 L145.387785,15.428066 L148.432256,15.428066 C149.787912,15.5013055 151.1125,15.0068846 152.084848,14.0646854 C153.057196,13.1224862 153.588507,11.8185512 153.549956,10.4690448 L153.525052,10.4752358 Z" id="Shape"></path>
                    </g>
                </g>
            </g>
        </g>
    </g>
</svg>