<?xml version="1.0" encoding="utf-8"?>
<!-- Generator: Adobe Illustrator 21.1.0, SVG Export Plug-In . SVG Version: 6.00 Build 0)  -->
<svg version="1.1" id="Layer_1" xmlns="http://www.w3.org/2000/svg" xmlns:xlink="http://www.w3.org/1999/xlink" x="0px" y="0px"
	 viewBox="0 0 85 23" style="enable-background:new 0 0 85 23;" xml:space="preserve">
<style type="text/css">
	.st0{fill:#CDCDCD;}
	.st1{fill:#FFFFFF;}
</style>
<title>Netflix</title>
<desc>Created with Sketch.</desc>
<g id="Event_1_">
	<g id="Sponsor-_x26_-Partners" transform="translate(-135.000000, -1412.000000)">
		<g id="logo-thedrum-desktop" transform="translate(135.000000, 1412.000000)">
			<polygon id="Shape" class="st0" points="0.8,0.5 84.2,0.5 84.2,22.5 0.8,22.5 			"/>
			<path id="Shape_1_" class="st1" d="M26.2,17.6H34v-1.5h-6.2v-4h6.1v-1.5h-6.1V6.9H34V5.4h-7.8V17.6z M23.3,10.6h-5.6V5.4h-1.6
				v12.1h1.6v-5.5h5.6v5.5h1.6V5.4h-1.6V10.6L23.3,10.6z M6.1,6.9h3.7v10.7h1.6V6.9h3.7V5.4h-9V6.9z M39.9,5.5h-4.8v12.1H40
				c0.7,0,1.5-0.1,2.2-0.2V5.7C41.4,5.5,40.7,5.4,39.9,5.5L39.9,5.5z M57.5,5.5v11.1c0.1,0.1,0.2,0.2,0.3,0.2V5.5H57.5L57.5,5.5z
				 M61.1,14.2c-0.9,0-1-0.2-1.1-0.4c-0.2-0.6-0.1-2-0.1-2.7V5.5H58v11.5c0.9,0.5,2,0.8,3.1,0.8h0.4v-3.5L61.1,14.2L61.1,14.2z
				 M61.6,14.2v3.5h0.2v-3.5C61.7,14.2,61.7,14.2,61.6,14.2L61.6,14.2z M62.3,5.5v7.4c0,0.5,0,0.9-0.2,1.1v3.7
				c0.7-0.1,1.4-0.3,2-0.7V5.5H62.3L62.3,5.5z M64.3,5.5v11.4c0.8-0.6,1.3-1.5,1.5-2.5V5.5H64.3z M56.3,5.5v6c0,1.1,0,1.7,0,2.2
				c0,0.7,0.2,1.4,0.6,2.1V5.5H56.3L56.3,5.5z M42.3,5.7v11.6c0.8-0.2,1.5-0.7,2-1.5V7.2C43.9,6.5,43.1,6,42.3,5.7L42.3,5.7z
				 M45.2,11.5c0-1.8-0.1-2.9-0.5-3.8v7.7C45.1,14.4,45.2,13.3,45.2,11.5L45.2,11.5z M45.8,5.5h0.3v12.1h-0.3V5.5z M46.4,5.5h0.3
				v12.1h-0.3V5.5z M47.2,5.5h1.1v12.1h-1.1V5.5z M50.5,5.5h-1.2v12.1h0.2v-4.1h0.9c0.3,0,0.6,0,0.9,0v-8L50.5,5.5L50.5,5.5z
				 M53.4,5.7v11.8h0.3V5.8C53.5,5.8,53.5,5.8,53.4,5.7L53.4,5.7z M55,11.6c0.1-0.2,0.2-0.4,0.3-0.6V7.6c-0.2-0.6-0.6-1.1-1.1-1.5
				v11.4h1.1v-5.4C55.2,11.9,55.1,11.7,55,11.6L55,11.6z M51.6,5.5v8c0.1,0,0.2,0,0.3,0.1c0.1,0.2,0.1,0.5,0,0.7v3.3h1.1V5.7
				C52.6,5.6,52.1,5.5,51.6,5.5L51.6,5.5z M48.9,5.5h0.2v12.1h-0.2V5.5z M69.3,5.5h0.4v12.1h-0.4V5.5z M74.6,5.5l-1.7,6v6.1h1.6
				l1-3.6v3.6h0.4V5.5H74.6L74.6,5.5z M78.5,5.5H79v12.1h-0.4V5.5z M76.4,5.5h1v12.1h-1V5.5z M71.1,5.5h-1.3v12.1h0.3v-3.6l1,3.6
				h1.5v-6.8L71.1,5.5L71.1,5.5z M66.7,5.5h2v12.1h-2V5.5z M82.1,6.5c0,0.6-0.5,1-1.1,1c-0.6,0-1-0.5-1-1.1c0-0.6,0.5-1,1-1
				c0.3,0,0.6,0.1,0.7,0.3C82,6,82.1,6.2,82.1,6.5L82.1,6.5z M80.1,6.5c0,0.5,0.4,0.9,0.9,0.9c0.5,0,0.9-0.4,0.9-0.9
				c0-0.5-0.4-0.9-0.9-0.9c-0.2,0-0.5,0.1-0.6,0.3C80.2,6,80.1,6.3,80.1,6.5L80.1,6.5z M80.8,7.1h-0.2V5.9h0.5c0.1,0,0.2,0,0.3,0.1
				c0.1,0.1,0.1,0.2,0.1,0.3c0,0.2-0.1,0.3-0.3,0.3l0.4,0.5h-0.2L81,6.6h-0.3L80.8,7.1L80.8,7.1z M81,6.4c0.2,0,0.4,0,0.4-0.2
				c0-0.1,0-0.1-0.1-0.2c-0.1,0-0.1-0.1-0.2,0h-0.3v0.4H81L81,6.4z"/>
		</g>
	</g>
</g>
</svg>
