<?xml version="1.0" encoding="utf-8"?>
<!-- Generator: Adobe Illustrator 21.1.0, SVG Export Plug-In . SVG Version: 6.00 Build 0)  -->
<svg version="1.1" id="Layer_1" xmlns="http://www.w3.org/2000/svg" xmlns:xlink="http://www.w3.org/1999/xlink" x="0px" y="0px"
	 viewBox="0 0 79 23" style="enable-background:new 0 0 79 23;" xml:space="preserve">
<style type="text/css">
	.st0{fill:#CDCDCD;}
</style>
<g>
	<path class="st0" d="M34.8,4.1c-1.3-1.3-3.1-2.1-5-2.1H19.5v18.8h7.1V9.1h2.3c0.6,0,1.2,0.2,1.7,0.7l2.4,2.4c0.4,0.4,0.7,1,0.7,1.7
		v7h7.1v-8c0-1.9-0.7-3.7-2.1-5L34.8,4.1z"/>
	<path class="st0" d="M71.3,2.1v7c0,0.6-0.3,1.2-0.7,1.7l-2.4,2.4c-0.4,0.4-1,0.7-1.7,0.7h-2.3h-1.1c0.7-1.1,1.1-2.5,1.1-3.8v-8
		h-7.1v7c0,0.6-0.3,1.2-0.7,1.7L54,13.2c-0.4,0.4-1,0.7-1.7,0.7h-2.3V2.1H43v18.8h10.3c1.9,0,3.7-0.7,5-2.1l2.4-2.4v4.4h6.8
		c1.9,0,3.7-0.7,5-2.1l3.8-3.8c1.3-1.3,2.1-3.1,2.1-5v-8H71.3z"/>
	<polygon class="st0" points="0.6,9.1 5.3,9.1 5.3,20.9 12.4,20.9 12.4,9.1 17.1,9.1 17.1,2.1 0.6,2.1 	"/>
</g>
</svg>
