<svg xmlns="http://www.w3.org/2000/svg" viewBox="0 0 27.06 22"><defs><style>.a{fill:#cdcdcd;}</style></defs><title>Twitter</title><path class="a" d="M8.82,22A15.69,15.69,0,0,0,24.61,6.2c0-.24,0-.48,0-.71a11.31,11.31,0,0,0,2.77-2.88,11.25,11.25,0,0,1-3.19.88A5.59,5.59,0,0,0,26.63.41,11,11,0,0,1,23.1,1.75a5.55,5.55,0,0,0-9.6,3.8,6.14,6.14,0,0,0,.14,1.27A15.77,15.77,0,0,1,2.19,1,5.57,5.57,0,0,0,3.91,8.43,5.62,5.62,0,0,1,1.4,7.74v.08a5.56,5.56,0,0,0,4.45,5.45,5.58,5.58,0,0,1-2.5.1,5.55,5.55,0,0,0,5.19,3.85,11.14,11.14,0,0,1-6.9,2.38,10.68,10.68,0,0,1-1.32-.08A15.79,15.79,0,0,0,8.82,22" transform="translate(-0.32)"/></svg>