<?xml version="1.0" encoding="UTF-8"?>
<svg width="246px" height="36px" viewBox="0 0 246 36" version="1.1" xmlns="http://www.w3.org/2000/svg" xmlns:xlink="http://www.w3.org/1999/xlink">
    <!-- Generator: Sketch 42 (36781) - http://www.bohemiancoding.com/sketch -->
    <title>OnBrandMe</title>
    <desc>Created with Sketch.</desc>
    <defs></defs>
    <g id="Event" stroke="none" stroke-width="1" fill="none" fill-rule="evenodd">
        <g id="Homepage" transform="translate(-50.000000, -49.000000)">
            <g id="Head" transform="translate(50.000000, 44.000000)">
                <g id="Logo" transform="translate(0.000000, 6.000000)">
                    <g id="OnBrandMe">
                        <path d="M0,13.6392301 C0,5.55528256 6.30350195,-1.77635684e-15 14.4280156,-1.77635684e-15 C22.5525292,-1.77635684e-15 28.8560311,5.55528256 28.8560311,13.6392301 C28.8560311,21.7231777 22.5680934,27.2862408 14.4280156,27.2862408 C6.28793774,27.2862408 0,21.7854218 0,13.6392301 Z M20.7626459,13.6392301 C20.7626459,9.95126945 18.2645914,7.04135954 14.4280156,7.04135954 C10.5914397,7.04135954 8.09338521,9.98239148 8.09338521,13.6392301 C8.09338521,17.2960688 10.5836576,20.2293202 14.4280156,20.2293202 C18.2723735,20.2293202 20.7626459,17.3349713 20.7626459,13.6392301 Z" id="Shape" fill="#FFFFFF"></path>
                        <polygon id="Shape" fill="#FFFFFF" points="49.4708171 26.8349713 39.7431907 13.452498 39.7431907 26.8349713 31.7276265 26.8349713 31.7276265 0.443488943 39.9610895 0.443488943 49.1284047 12.8923014 49.1284047 0.443488943 57.1128405 0.443488943 57.1128405 26.8349713"></polygon>
                        <path d="M61.4007782,26.8349713 L61.4007782,0.443488943 L77.4319066,0.443488943 C82.8793774,0.443488943 85.2607004,4.09254709 85.2607004,7.15028665 C85.2607004,10.4336609 83.3229572,12.6666667 80.7470817,13.1879607 C83.5797665,13.6314496 85.7821012,16.2457002 85.7821012,19.6380016 C85.7821012,23.3259623 83.2840467,26.7960688 78,26.7960688 L61.4007782,26.7960688 L61.4007782,26.7960688 L61.4007782,26.8349713 Z M77.1284047,8.55855856 C77.1244145,8.15272094 76.9571246,7.76558891 76.6642844,7.48451987 C76.3714442,7.20345082 75.97773,7.05212917 75.5719844,7.06470106 L69.3463035,7.06470106 L69.3463035,10.1769042 L75.5719844,10.1769042 C75.9957894,10.1772433 76.4014063,10.0047808 76.6951493,9.69935067 C76.9888922,9.39392053 77.145357,8.98193772 77.1284047,8.55855856 L77.1284047,8.55855856 Z M77.6498054,18.509828 C77.6470574,18.0291053 77.4440521,17.571275 77.089607,17.2464335 C76.7351618,16.921592 76.2613464,16.7591303 75.7821012,16.7981163 L69.3774319,16.7981163 L69.3774319,20.1515152 L75.7898833,20.1515152 C76.2584915,20.2116827 76.7304143,20.0681019 77.0860663,19.757156 C77.4417184,19.4462102 77.6469682,18.9977404 77.6498054,18.525389 L77.6498054,18.509828 Z" id="Shape" fill="#FFFFFF"></path>
                        <path d="M103.501946,26.8349713 L99.8521401,18.525389 L96.9649805,18.525389 L96.9649805,26.8349713 L88.9883268,26.8349713 L88.9883268,0.443488943 L103.081712,0.443488943 C109.307393,0.443488943 112.59144,4.54381654 112.59144,9.5 C112.740217,12.862371 110.882567,15.9934592 107.859922,17.4750205 L112.59144,26.8116298 L103.501946,26.8116298 L103.501946,26.8349713 Z M104.474708,9.46887797 C104.474708,8.05282555 103.206226,7.42260442 101.867704,7.42260442 L96.9649805,7.42260442 L96.9649805,11.5618346 L101.85214,11.5618346 C103.190661,11.5540541 104.459144,10.8927109 104.459144,9.46887797 L104.474708,9.46887797 Z" id="Shape" fill="#FFFFFF"></path>
                        <path d="M133.424125,26.8349713 L132.490272,23.7227682 L122.957198,23.7227682 L122.023346,26.8349713 L112.957198,26.8349713 L122.684825,0.443488943 L132.747082,0.443488943 L142.474708,26.8349713 L133.424125,26.8349713 Z M127.719844,8.27067977 L125.11284,16.7669943 L130.33463,16.7669943 L127.719844,8.27067977 Z" id="Shape" fill="#FFFFFF"></path>
                        <polygon id="Shape" fill="#FFFFFF" points="143.898833 26.8349713 143.898833 0.443488943 151.875486 0.443488943 151.875486 12.8923014 161.042802 0.443488943 169.284047 0.443488943 169.284047 26.8349713 161.307393 26.8349713 161.307393 13.452498 151.579767 26.8349713 143.898833 26.8349713"></polygon>
                        <path d="M173.540856,26.8349713 L173.540856,0.443488943 L185.322957,0.443488943 C193.634241,0.443488943 199.789883,5.17403767 199.789883,13.6003276 C199.789883,22.0266175 193.564202,26.8271908 185.361868,26.8271908 L173.540856,26.8271908 L173.540856,26.8271908 L173.540856,26.8349713 Z M191.696498,13.6081081 C191.696498,10.0290745 189.649805,7.38370188 185.361868,7.38370188 L181.525292,7.38370188 L181.525292,19.8325143 L185.330739,19.8325143 C187.025247,19.9245571 188.68092,19.3031999 189.89631,18.1191031 C191.111699,16.9350062 191.775814,15.2963025 191.727626,13.6003276 L191.696498,13.6081081 Z" id="Shape" fill="#FFFFFF"></path>
                        <rect id="Rectangle-path" fill="#FFFFFF" x="1.75097276" y="29.4103194" width="25.385214" height="4.76945127"></rect>
                        <path d="M222.11,26 L222.11,0.654 L217.398,0.654 L209.418,8.672 L212.496,11.902 L216.714,7.608 L216.714,26 L222.11,26 Z M235.144,26 L244.568,4.416 L244.568,0.654 L225.53,0.654 L225.53,5.404 L238.298,5.404 L229.216,26 L235.144,26 Z" id="17" stroke="#46237A" stroke-width="2" fill="#46237A"></path>
                    </g>
                </g>
            </g>
        </g>
    </g>
</svg>